<?xml version="1.0" encoding="UTF-8" standalone="no"?>
<!-- Created with Inkscape (http://www.inkscape.org/) -->

<svg
   xmlns:dc="http://purl.org/dc/elements/1.1/"
   xmlns:cc="http://creativecommons.org/ns#"
   xmlns:rdf="http://www.w3.org/1999/02/22-rdf-syntax-ns#"
   xmlns:svg="http://www.w3.org/2000/svg"
   xmlns="http://www.w3.org/2000/svg"
   xmlns:sodipodi="http://sodipodi.sourceforge.net/DTD/sodipodi-0.dtd"
   xmlns:inkscape="http://www.inkscape.org/namespaces/inkscape"
   version="1.1"
   id="svg2"
   xml:space="preserve"
   width="1283.6005"
   height="866.59424"
   viewBox="0 0 1283.6004 866.5942"
   sodipodi:docname="3.svg"
   inkscape:version="0.92.4 (unknown)"><metadata
     id="metadata8"><rdf:RDF><cc:Work
         rdf:about=""><dc:format>image/svg+xml</dc:format><dc:type
           rdf:resource="http://purl.org/dc/dcmitype/StillImage" /><dc:title></dc:title></cc:Work></rdf:RDF></metadata><defs
     id="defs6" /><sodipodi:namedview
     pagecolor="#ffffff"
     bordercolor="#666666"
     borderopacity="1"
     objecttolerance="10"
     gridtolerance="10"
     guidetolerance="10"
     inkscape:pageopacity="0"
     inkscape:pageshadow="2"
     inkscape:window-width="1366"
     inkscape:window-height="701"
     id="namedview4"
     showgrid="false"
     inkscape:zoom="0.22124998"
     inkscape:cx="626.26662"
     inkscape:cy="466.53662"
     inkscape:window-x="0"
     inkscape:window-y="24"
     inkscape:window-maximized="1"
     inkscape:current-layer="g10" /><g
     id="g10"
     inkscape:groupmode="layer"
     inkscape:label="ink_ext_XXXXXX"
     transform="matrix(1.3333333,0,0,-1.3333333,-107.06675,933.39093)"><path
       inkscape:connector-curvature="0"
       id="path16"
       style="fill:#f1f2f2;fill-opacity:1;fill-rule:nonzero;stroke:none;stroke-width:0.1"
       d="m 521.964,155.882 c -28.193,-0.084 -56.386,-0.762 -84.528,-3.892 -10.611,-1.18 -21,-3.776 -31.635,-4.823 -21.244,-2.092 -42.107,-5.994 -63.426,-7.793 -17.168,-1.45 -34.408,-2.305 -51.526,-4.144 -16.049,-1.724 -33.816,-1.326 -49.742,1.522 -11.79,2.109 -23.633,3.296 -35.225,6.683 -12.968,3.788 -27.055,6.497 -40.565,6.4 -19.266,-0.139 -38.029,-0.156 -56.466,-6.845 -6.472,-2.349 -14.3955,-6.209 -19.3104,-11.137 C 78.2898,120.571 76.7672,92.4211 88.0008,80.7199 106.922,61.027 147.306,53.3 173.828,52.9352 c 29.062,-0.4 57.296,1.757 86.401,3.0257 27.045,1.1793 54.023,2.8563 81.113,2.7973 55.328,-0.1211 110.664,0 165.892,3.6957 51.889,3.4723 103.907,2.2801 155.91,2.2801 53.326,0 106.291,-0.4192 159.232,-7.5059 23.067,-3.0879 46.568,-4.1691 69.75,-6.332 20.763,-1.9379 40.714,0.0379 61.394,1.8281 17.365,1.5039 34.616,5.9637 50.39,13.5028 12.49,5.9679 34.75,24.507 38.58,38.752 10.74,39.935 -151.3,38.975 -176.179,38.885 -27.832,-0.101 -55.884,-1.016 -83.694,0.045 -11.698,0.446 -23.224,2.732 -34.641,5.238 -11.372,2.495 -22.829,1.861 -34.362,2.909 -48.092,4.374 -96.29,3.735 -144.535,3.735 -15.7,0 -31.408,0.138 -47.115,0.091" /><path
       inkscape:connector-curvature="0"
       id="path18"
       style="fill:#ebb044;fill-opacity:1;fill-rule:nonzero;stroke:none;stroke-width:0.1"
       d="m 142.293,501.421 c 21.017,4.141 25.075,26.676 25.487,29.388 0.032,0.184 -0.004,0.352 -0.088,0.521 l -1.359,2.707 -4.856,9.658 -4.85,9.659 -1.359,2.708 c -0.086,0.168 -0.2,0.297 -0.369,0.383 -2.419,1.288 -22.925,11.491 -38.795,-2.896 -0.591,-0.536 -0.235,-1.521 0.566,-1.568 3.518,-0.203 10.58,-0.798 13.857,-2.384 0.749,-0.364 0.575,-1.491 -0.242,-1.681 -4.678,-1.099 -17.11,-5.096 -23.473,-17.388 -7.9397,-15.33 -5.747,-17.169 -5.747,-17.169 l 0.327,0.164 -0.327,-0.164 c 0,0 0.184,-2.863 17.207,-5.645 13.662,-2.238 24.289,5.351 27.966,8.446 0.641,0.539 1.651,0.008 1.493,-0.815 -0.682,-3.572 -4.422,-9.59 -6.363,-12.536 -0.437,-0.666 0.141,-1.54 0.925,-1.388" /><path
       inkscape:connector-curvature="0"
       id="path20"
       style="fill:#ffd559;fill-opacity:1;fill-rule:nonzero;stroke:none;stroke-width:0.1"
       d="m 149.099,511.983 c 14.926,2.486 17.102,19.591 17.312,21.651 0.017,0.142 -0.013,0.272 -0.078,0.403 l -4.856,9.658 -4.85,9.659 c -0.066,0.13 -0.155,0.232 -0.274,0.307 -1.781,1.063 -16.804,9.526 -27.71,-0.963 -0.406,-0.386 -0.12,-1.154 0.457,-1.214 2.527,-0.269 7.607,-0.952 10.006,-2.275 0.552,-0.3 0.461,-1.155 -0.115,-1.276 -3.319,-0.69 -12.098,-3.343 -16.263,-12.54 -5.191,-11.466 -3.557,-12.944 -3.557,-12.944 0,0 0.191,-1.928 10.344,-4.379 0.677,-0.162 1.4,-0.327 2.165,-0.496 9.864,-2.152 17.232,3.305 19.771,5.555 0.439,0.391 1.182,-0.046 1.095,-0.671 -0.374,-2.711 -2.859,-7.193 -4.155,-9.381 -0.289,-0.499 0.151,-1.183 0.708,-1.094" /><path
       inkscape:connector-curvature="0"
       id="path22"
       style="fill:#1a3151;fill-opacity:1;fill-rule:nonzero;stroke:none;stroke-width:0.1"
       d="m 125.644,584.911 c 7.985,-1.072 25.714,-5.386 35.613,-12.246 0.172,-0.196 0.364,-0.37 0.537,-0.562 l 36.158,32.224 c -6.263,2.994 -27.197,11.507 -48.666,3.312 -25.642,-9.786 -33.245,-21.438 -23.642,-22.728" /><path
       inkscape:connector-curvature="0"
       id="path24"
       style="fill:#ccaf5d;fill-opacity:1;fill-rule:nonzero;stroke:none;stroke-width:0.1"
       d="m 205.187,496.008 c 19.224,12.15 25.035,33.7 26.466,40.745 l -47.92,-9.607 c 0.185,0.027 0.372,0.059 0.557,0.091 0.029,-0.131 0.036,-0.27 0.065,-0.4 -0.328,-12.053 -7.575,-29.048 -11.532,-36.139 -4.719,-8.463 9.166,-9.353 32.364,5.31" /><path
       inkscape:connector-curvature="0"
       id="path26"
       style="fill:#1a3151;fill-opacity:1;fill-rule:nonzero;stroke:none;stroke-width:0.1"
       d="m 168.229,547.241 c -0.075,0.146 -0.14,0.286 -0.211,0.437 l -0.026,-0.012 c -7.019,14.176 -6.781,21.541 -6.306,24.146 -2.831,-2.715 -5.741,-5.514 -8.757,-8.407 0,0 -2.578,-5.827 5.146,-21.253 7.722,-15.426 13.975,-16.939 13.975,-16.939 4.023,0.669 7.905,1.307 11.683,1.933 l 0.272,0.053 -0.016,0.009 0.037,0.007 c -2.429,1.245 -8.583,5.61 -15.797,20.026" /><path
       inkscape:connector-curvature="0"
       id="path28"
       style="fill:#1a3151;fill-opacity:1;fill-rule:nonzero;stroke:none;stroke-width:0.1"
       d="m 205.199,496.029 c 19.225,12.15 25.036,33.701 26.466,40.744 l -47.921,-9.607 c 0.185,0.03 0.374,0.062 0.559,0.094 0.031,-0.133 0.036,-0.27 0.066,-0.404 -0.329,-12.051 -7.577,-29.046 -11.531,-36.134 -4.722,-8.465 9.166,-9.356 32.361,5.307" /><path
       inkscape:connector-curvature="0"
       id="path30"
       style="fill:#3ababa;fill-opacity:1;fill-rule:nonzero;stroke:none;stroke-width:0.1"
       d="m 276.106,557.704 c 4.391,3.229 8.378,6.477 12,9.705 25.339,22.572 32.773,44.184 34.706,51.715 -1.286,1.196 -2.382,2.62 -3.263,4.235 l -0.032,-0.016 -0.113,0.191 c -0.055,0.108 -0.122,0.207 -0.175,0.317 -0.687,1.372 -1.147,2.79 -1.431,4.225 -6.677,2.653 -23.426,7.758 -48.479,5.004 -8.429,-0.928 -17.792,-2.743 -28.029,-5.843 -16.478,-4.993 -29.903,-12.644 -43.274,-22.943 l -0.064,0.033 -23.1,-20.588 -13.058,-11.636 0.093,-0.098 -0.201,-0.193 c -0.455,-2.508 -0.684,-9.415 5.535,-22.543 0.313,-0.671 0.635,-1.346 0.988,-2.05 7.219,-14.409 13.368,-18.78 15.796,-20.02 l 47.649,9.557 0.001,0.01 0.016,0.003 0.002,0.005 c 16.312,4.537 30.531,10.703 44.433,20.93" /><path
       inkscape:connector-curvature="0"
       id="path32"
       style="fill:#1a3151;fill-opacity:1;fill-rule:nonzero;stroke:none;stroke-width:0.1"
       d="m 334.806,627.081 c 2.465,2.298 3.236,4.151 2.758,5.106 l -0.102,0.119 -0.006,-0.004 c -0.423,0.612 -1.51,1.001 -3.245,0.97 -0.702,-0.012 -1.496,-0.088 -2.411,-0.25 -3.265,-0.585 -8.772,-2.531 -13.828,-5.008 l -0.174,0.062 c 0.283,-1.431 0.743,-2.856 1.428,-4.226 0.056,-0.109 0.123,-0.208 0.18,-0.316 0.895,-1.701 2.051,-3.182 3.386,-4.427 l 0.007,0.029 0.013,-0.012 0.01,0.042 c 4.419,2.283 8.653,5.066 11.184,7.217 0.282,0.239 0.562,0.475 0.8,0.698" /><path
       inkscape:connector-curvature="0"
       id="path34"
       style="fill:#145566;fill-opacity:1;fill-rule:nonzero;stroke:none;stroke-width:0.1"
       d="m 278.599,603.296 c -5.824,10.645 -19.121,14.832 -30.126,9.328 -11.253,-5.642 -15.852,-19.279 -10.232,-30.477 5.598,-11.196 19.281,-15.705 30.537,-10.064 2.115,1.057 3.994,2.399 5.613,3.955 7.034,6.72 9.223,17.448 4.665,26.556 -0.127,0.255 -0.306,0.455 -0.444,0.708 l -0.013,-0.006" /><path
       inkscape:connector-curvature="0"
       id="path36"
       style="fill:#a2a4a7;fill-opacity:1;fill-rule:nonzero;stroke:none;stroke-width:0.1"
       d="m 319.388,623.421 -0.018,0.03 -0.029,0.05 -0.064,0.117 -0.011,0.019 0.122,0.072 0.081,-0.144 0.041,-0.075 -0.122,-0.069" /><path
       inkscape:connector-curvature="0"
       id="path38"
       style="fill:#1a3151;fill-opacity:1;fill-rule:nonzero;stroke:none;stroke-width:0.1"
       d="m 253.159,491.415 c 0,0 6.794,-3.415 7.958,-21.32 1.163,-17.904 5.323,-28.896 5.323,-28.896 0,0 -5.343,-4.032 -10.273,-2.295 -4.929,1.736 -6.672,1.914 -6.621,9.305 0.051,7.391 -4.197,41.636 -4.197,41.636 l 7.81,1.57" /><path
       inkscape:connector-curvature="0"
       id="path40"
       style="fill:#1a3151;fill-opacity:1;fill-rule:nonzero;stroke:none;stroke-width:0.1"
       d="m 240.217,482.385 c 6.97,-0.332 13.5,-5.263 15.736,-11.884 2.841,4.152 3.524,9.703 1.775,14.423 -1.749,4.721 -5.884,8.485 -10.742,9.78 -3.588,-3.075 -5.889,-7.61 -6.254,-12.325 l -0.515,0.006" /><path
       inkscape:connector-curvature="0"
       id="path42"
       style="fill:#d1d3d3;fill-opacity:1;fill-rule:nonzero;stroke:none;stroke-width:0.1"
       d="m 231.775,440.04 -21.76,-7.983 -15.8,-14.349 -0.328,64.348 -19.722,-3.061 -6.531,-74.254 21.02,-17.783 42.299,14.375 0.822,38.707" /><path
       inkscape:connector-curvature="0"
       id="path44"
       style="fill:#1a3151;fill-opacity:1;fill-rule:nonzero;stroke:none;stroke-width:0.1"
       d="m 203.808,116.6 -0.704,-5.621 10.056,-7.269 6.083,4.799 -4.676,6.445 -10.056,7.268 -0.703,-5.622" /><path
       inkscape:connector-curvature="0"
       id="path46"
       style="fill:#1a3151;fill-opacity:1;fill-rule:nonzero;stroke:none;stroke-width:0.1"
       d="m 208.132,288.891 -2.135,-17.074 13.94,-59.164 -16.466,-94.155 10.392,-3.863 29.807,91.599 5.018,26.733 1.182,56.818 -41.738,-0.894" /><path
       inkscape:connector-curvature="0"
       id="path48"
       style="fill:#1a3151;fill-opacity:1;fill-rule:nonzero;stroke:none;stroke-width:0.1"
       d="M 288.265,267.913 262.487,110.1 l -10.017,0.237 0.594,101.533 -16.549,71.667 51.75,-15.624" /><path
       inkscape:connector-curvature="0"
       id="path50"
       style="fill:#1a3151;fill-opacity:1;fill-rule:nonzero;stroke:none;stroke-width:0.1"
       d="m 252.557,111.587 -0.134,-5.687 10.698,-5.943 5.551,5.559 -5.282,5.815 -10.833,0.256" /><path
       inkscape:connector-curvature="0"
       id="path52"
       style="fill:#d1d3d3;fill-opacity:1;fill-rule:nonzero;stroke:none;stroke-width:0.1"
       d="m 209.182,309.874 c 9.916,57.396 7.851,99.415 8.567,110.922 0.715,11.507 8.747,17.298 8.751,17.3 3.481,0.708 6.549,2.921 10.067,3.74 23.8,5.538 36.265,-13.27 44.648,-33.437 10.33,-24.848 18.896,-50.474 25.694,-76.571 5.966,-22.903 11.942,-46.011 14.112,-69.685 0.896,-9.768 1.616,-19.029 -8.896,-23.081 -16.752,-6.456 -35.392,-5.866 -52.966,-7.648 -20.188,-2.047 -40.387,-3.414 -60.669,-3.799 -10.588,-0.2 0.775,24.863 10.692,82.259" /><path
       inkscape:connector-curvature="0"
       id="path54"
       style="fill:#ddc8ac;fill-opacity:1;fill-rule:nonzero;stroke:none;stroke-width:0.1"
       d="m 176.451,479.102 -8.66,9.088 3.39,15.539 8.561,-0.202 2.196,-13.655 4.283,-2.714 -0.155,-6.564 -9.615,-1.492" /><path
       inkscape:connector-curvature="0"
       id="path56"
       style="fill:#d1d3d3;fill-opacity:1;fill-rule:nonzero;stroke:none;stroke-width:0.1"
       d="m 248.054,442.747 22.564,-4.564 45.268,-45.909 53.927,0.741 2.628,-16.688 -63.204,-9.591 -51.08,34.459 -10.103,41.552" /><path
       inkscape:connector-curvature="0"
       id="path58"
       style="fill:#ffffff;fill-opacity:1;fill-rule:nonzero;stroke:none;stroke-width:0.1"
       d="m 253.612,441.412 2.723,-61.35 -30.027,58.967 9.236,3.055 6.589,1.808 11.479,-2.48" /><path
       inkscape:connector-curvature="0"
       id="path60"
       style="fill:#ddc8ac;fill-opacity:1;fill-rule:nonzero;stroke:none;stroke-width:0.1"
       d="m 370.315,388.854 10.057,5.927 12.651,-3.482 -0.161,-6.817 -21.307,-3.501 -1.24,7.873" /><path
       inkscape:connector-curvature="0"
       id="path62"
       style="fill:#ddc8ac;fill-opacity:1;fill-rule:nonzero;stroke:none;stroke-width:0.1"
       d="m 255.546,476.557 c -7.404,17.186 -29.094,9.082 -32.268,-6.884 -1.804,-9.079 2.658,-25.038 13.539,-25.444 0.512,-1.554 1.383,-4.486 2.833,-5.277 1.57,-0.857 5.462,1.164 6.999,1.902 0.427,0.205 0.867,0.44 1.12,0.839 0.317,0.501 0.14,1.613 -0.124,2.829 1.172,0.348 2.339,0.852 3.488,1.538 4.824,2.875 7.516,8.545 7.899,14.155 0.383,5.61 -1.261,11.178 -3.486,16.342" /><path
       inkscape:connector-curvature="0"
       id="path64"
       style="fill:#1a3151;fill-opacity:1;fill-rule:nonzero;stroke:none;stroke-width:0.1"
       d="m 246.545,494.654 c 0,0 4.338,-9.248 -7.493,-14.731 -11.831,-5.482 -17.731,-17.019 -13.29,-26.812 4.442,-9.793 15.325,-15.308 11.063,-19.098 -4.262,-3.791 -22.707,-5.075 -22.707,-5.075 0,0 -18.909,33.806 -7.816,52.748 11.093,18.941 32.057,24.194 40.243,12.968" /><path
       inkscape:connector-curvature="0"
       id="path66"
       style="fill:#1a3151;fill-opacity:1;fill-rule:nonzero;stroke:none;stroke-width:0.1"
       d="m 343.666,120.235 -0.911,-7.083 13.255,-8.904 7.994,6.172 -6.173,7.994 -13.255,8.904 -0.91,-7.083" /><path
       inkscape:connector-curvature="0"
       id="path68"
       style="fill:#999999;fill-opacity:1;fill-rule:nonzero;stroke:none;stroke-width:0.1"
       d="m 343.218,122.613 10.222,90.33 -12.299,101.126 2.765,21.511 54.935,2.087 1.983,-35.012 -9.222,-89.85 -34.696,-94.808 -13.688,4.616" /><path
       inkscape:connector-curvature="0"
       id="path70"
       style="fill:#145566;fill-opacity:1;fill-rule:nonzero;stroke:none;stroke-width:0.1"
       d="m 387.424,436.167 28.183,-5.087 65.135,-15.49 -4.139,-21.829 -66.588,1.004 -22.591,41.402" /><path
       inkscape:connector-curvature="0"
       id="path72"
       style="fill:#999999;fill-opacity:1;fill-rule:nonzero;stroke:none;stroke-width:0.1"
       d="m 439.15,327.544 0.145,-91.156 -18.348,-117.346 -13.207,0.131 -7.259,108.519 -16.991,108.615 55.66,-8.763" /><path
       inkscape:connector-curvature="0"
       id="path74"
       style="fill:#1a3151;fill-opacity:1;fill-rule:nonzero;stroke:none;stroke-width:0.1"
       d="m 407.76,113.604 14.211,-7.284 7.212,7.07 -7.07,7.212 -14.281,0.142 -0.072,-7.14" /><path
       inkscape:connector-curvature="0"
       id="path76"
       style="fill:#145566;fill-opacity:1;fill-rule:nonzero;stroke:none;stroke-width:0.1"
       d="m 331.444,289.657 c -0.219,3.946 -0.288,7.249 -0.359,8.425 -0.642,10.581 -0.624,21.196 -0.22,31.793 0.362,9.496 -0.184,32.944 0.606,42.419 0.653,7.823 3.594,27.466 6.31,34.907 6.753,18.505 4.042,19.923 40.082,28.397 15.795,3.714 20.449,-5.925 34.532,-16.245 1.388,-1.018 1.907,-7.757 2.362,-9.514 0.802,-3.093 1.641,-6.178 2.561,-9.241 0.724,-2.408 1.499,-4.803 2.342,-7.176 l -0.002,10e-4 c 0,0 15.354,-49.005 23.544,-58.982 8.189,-9.976 24.489,-23.499 0.189,-34.754 -4.321,-1.826 -8.676,-3.586 -13.24,-4.722 0,0 -20.721,0.484 -31.268,-0.519 -9.714,-0.923 -19.388,-2.761 -28.799,-5.245 -6.296,-1.628 -12.681,-3.75 -18.136,-7.236 -5.204,-3.326 -8.773,-7.861 -14.048,-11.295 -0.499,-0.325 -1.049,-0.665 -1.652,-0.634 -3.216,0.162 -4.343,11.316 -4.804,19.621" /><path
       inkscape:connector-curvature="0"
       id="path78"
       style="fill:#e1cfb5;fill-opacity:1;fill-rule:nonzero;stroke:none;stroke-width:0.1"
       d="m 377.902,431.306 c -1.451,-1.465 -5.471,-3.194 -10.355,-2.989 -0.985,0.042 -1.858,0.677 -2.166,1.612 -0.865,2.627 -1.553,5.311 -2.058,8.03 -3.619,0.025 -7.935,0.444 -9.659,3.626 -0.543,1.002 -0.733,2.152 -0.915,3.277 -0.751,4.652 -1.503,9.304 -2.254,13.956 -0.26,1.609 -0.519,3.269 -0.14,4.854 0.664,2.782 3.133,4.748 5.638,6.127 6.394,3.519 14.31,4.595 21.114,1.955 1.811,-0.703 3.57,-1.692 4.783,-3.208 1.871,-2.338 2.169,-5.525 2.392,-8.512 0.206,-2.756 0.412,-5.513 0.618,-8.27 0.236,-3.17 0.271,-6.855 -2.156,-8.909 -1.289,-1.091 -3.103,-1.526 -4.155,-2.846 -1.856,-2.327 -0.321,-5.749 -0.687,-8.703" /><path
       inkscape:connector-curvature="0"
       id="path80"
       style="fill:#1a3151;fill-opacity:1;fill-rule:nonzero;stroke:none;stroke-width:0.1"
       d="m 402.084,488.595 c 0.291,1.326 0.646,2.632 1.11,3.901 1.004,2.75 2.519,5.331 3.101,8.2 0.583,2.868 -0.036,6.273 -2.475,7.891 -1.575,1.044 -3.581,1.146 -5.468,1.061 -6.218,-0.28 -12.351,-2.264 -17.556,-5.678 -4.957,-3.251 -9.032,-7.214 -15.203,-7.053 -5.799,0.152 -9.242,-1.907 -13.953,-5.67 -5.099,-4.073 -12.733,-7.245 -16.987,-11.982 -1.776,-1.979 -2.872,-4.492 -3.512,-7.072 -2.219,-8.94 1.222,-19.03 8.441,-24.751 1.62,-1.284 3.398,-2.354 5.217,-3.335 3.764,-2.031 8.307,-4.576 12.458,-4.38 -1.071,3.405 -7.804,12.987 -6.164,16.644 2.603,5.803 12.428,7.47 17.901,8.144 5.97,0.736 12.285,-1.499 18.092,-0.443 4.178,0.759 8.575,4.449 11.245,7.662 3.294,3.966 2.692,12.02 3.753,16.861" /><path
       inkscape:connector-curvature="0"
       id="path82"
       style="fill:#666666;fill-opacity:1;fill-rule:nonzero;stroke:none;stroke-width:0.1"
       d="m 544.812,277.669 -0.975,-18.478 c -0.317,-6.001 -5.32,-10.616 -11.174,-10.307 l -47.346,2.499 c -5.854,0.309 -10.343,5.425 -10.027,11.427 l 0.976,18.478 68.546,-3.619" /><path
       inkscape:connector-curvature="0"
       id="path84"
       style="fill:#ebb044;fill-opacity:1;fill-rule:nonzero;stroke:none;stroke-width:0.1"
       d="m 408.828,533.638 c 3.432,65.006 57.615,114.99 121.021,111.643 63.405,-3.347 112.025,-58.758 108.593,-123.763 -1.219,-23.1 -8.853,-44.3 -21.026,-61.887 l 0.005,-10e-4 c -34.844,-53.194 -44.653,-98.77 -44.653,-98.77 l -57.772,3.049 -57.772,3.05 c 0,0 -4.956,46.356 -34.006,102.923 l 0.005,-0.001 c -10.255,18.772 -15.614,40.657 -14.395,63.757" /><path
       inkscape:connector-curvature="0"
       id="path86"
       style="fill:#b0b0b0;fill-opacity:1;fill-rule:nonzero;stroke:none;stroke-width:0.1"
       d="m 574.098,360.789 -4.143,-78.493 c -0.174,-3.279 -2.845,-5.804 -5.968,-5.639 l -106.896,5.642 c -3.123,0.166 -5.514,2.958 -5.341,6.237 l 4.144,78.493 118.204,-6.24" /><path
       inkscape:connector-curvature="0"
       id="path88"
       style="fill:#fff0c5;fill-opacity:1;fill-rule:nonzero;stroke:none;stroke-width:0.1"
       d="m 572.768,360.86 -56.162,2.964 56.162,-2.964 c 0,0 0.022,0.106 0.07,0.315 v 0 c -0.042,-0.188 -0.07,-0.315 -0.07,-0.315 m -163.93,172.954 v 0.001 -0.001" /><path
       inkscape:connector-curvature="0"
       id="path90"
       style="fill:#f2bd4b;fill-opacity:1;fill-rule:nonzero;stroke:none;stroke-width:0.1"
       d="m 572.768,360.86 -56.162,2.964 -59.382,3.135 c -0.013,0.119 -4.994,46.429 -34.006,102.923 l 0.005,-0.001 v 0 c -9.294,17.012 -14.566,36.581 -14.566,57.294 0.001,2.143 0.057,4.298 0.171,6.463 0.003,0.059 0.007,0.118 0.01,0.176 v 0.001 c 0.405,7.474 1.509,14.736 3.193,21.753 26.075,-59.988 77.942,-153.271 160.807,-194.393 -0.048,-0.209 -0.07,-0.315 -0.07,-0.315" /><path
       inkscape:connector-curvature="0"
       id="path92"
       style="fill:#ccbd92;fill-opacity:1;fill-rule:nonzero;stroke:none;stroke-width:0.1"
       d="m 516.606,363.824 -1.61,0.085 -57.772,3.05 v 0 0 l 59.382,-3.135" /><path
       inkscape:connector-curvature="0"
       id="path94"
       style="fill:#ffd559;fill-opacity:1;fill-rule:nonzero;stroke:none;stroke-width:0.1"
       d="m 619.17,512.827 c 2.996,56.752 -39.45,105.127 -94.806,108.049 -32.356,1.708 -61.956,-12.496 -81.569,-35.924 18.933,29.891 52.468,48.917 89.633,46.955 55.355,-2.922 97.801,-51.297 94.806,-108.049 -1.245,-23.58 -10.144,-44.89 -24.085,-61.543 9.267,14.63 15.037,31.863 16.021,50.512" /><path
       inkscape:connector-curvature="0"
       id="path96"
       style="fill:#f4f5f5;fill-opacity:1;fill-rule:nonzero;stroke:none;stroke-width:0.1"
       d="m 537.321,362.731 21.861,149.93 -20.252,-15.498 -15.459,28.355 -18.54,-25.682 -18.22,16.793 5.96,-151.541 -5.93,0.313 -6.502,165.355 23.818,-21.954 20.115,27.862 16.638,-30.512 26.338,20.158 -23.898,-163.892 -5.929,0.313" /><path
       inkscape:connector-curvature="0"
       id="path98"
       style="fill:#ebeaeb;fill-opacity:1;fill-rule:nonzero;stroke:none;stroke-width:0.1"
       d="m 545.431,377.37 -2.181,-14.952 -5.929,0.313 2.693,18.469 c 1.789,-1.3 3.592,-2.578 5.417,-3.83" /><path
       inkscape:connector-curvature="0"
       id="path100"
       style="fill:#ebeaeb;fill-opacity:1;fill-rule:nonzero;stroke:none;stroke-width:0.1"
       d="m 490.217,427.484 2.454,-62.396 -5.93,0.313 -2.73,69.424 c 2.033,-2.469 4.101,-4.916 6.206,-7.341" /><path
       inkscape:connector-curvature="0"
       id="path102"
       style="fill:#7f7f7f;fill-opacity:1;fill-rule:nonzero;stroke:none;stroke-width:0.1"
       d="m 454.1,333.044 118.204,-6.24 0.765,14.496 -118.204,6.239 -0.765,-14.495" /><path
       inkscape:connector-curvature="0"
       id="path104"
       style="fill:#7f7f7f;fill-opacity:1;fill-rule:nonzero;stroke:none;stroke-width:0.1"
       d="m 452.466,302.088 118.204,-6.24 0.765,14.496 -118.204,6.239 -0.765,-14.495" /><path
       inkscape:connector-curvature="0"
       id="path106"
       style="fill:#8e8e8e;fill-opacity:1;fill-rule:nonzero;stroke:none;stroke-width:0.1"
       d="m 506.63,313.764 -53.399,2.819 0.869,16.461 32.94,-1.739 c 6.562,-6.613 13.124,-12.425 19.59,-17.541" /><path
       inkscape:connector-curvature="0"
       id="path108"
       style="fill:#8e8e8e;fill-opacity:1;fill-rule:nonzero;stroke:none;stroke-width:0.1"
       d="m 454.865,347.539 1.029,19.49 1.859,-0.098 c 5.058,-7.369 10.21,-14.14 15.408,-20.358 l -18.296,0.966" /><path
       inkscape:connector-curvature="0"
       id="path110"
       style="fill:#8e8e8e;fill-opacity:1;fill-rule:nonzero;stroke:none;stroke-width:0.1"
       d="M 563.987,276.657 457.091,282.3 c -3.123,0.165 -5.514,2.957 -5.341,6.236 l 0.716,13.552 77.182,-4.074 c 15.224,-8.887 29.078,-14.115 40.029,-17.19 -0.765,-2.524 -3.058,-4.306 -5.69,-4.167" /><path
       inkscape:connector-curvature="0"
       id="path112"
       style="fill:#666666;fill-opacity:1;fill-rule:nonzero;stroke:none;stroke-width:0.1"
       d="m 487.04,331.305 -32.94,1.739 0.765,14.495 18.296,-0.966 c 4.603,-5.505 9.24,-10.592 13.879,-15.268" /><path
       inkscape:connector-curvature="0"
       id="path114"
       style="fill:#666666;fill-opacity:1;fill-rule:nonzero;stroke:none;stroke-width:0.1"
       d="m 529.648,298.014 -77.182,4.074 0.765,14.495 53.399,-2.819 c 7.877,-6.232 15.609,-11.425 23.018,-15.75" /><path
       inkscape:connector-curvature="0"
       id="path116"
       style="fill:#4e4e4e;fill-opacity:1;fill-rule:nonzero;stroke:none;stroke-width:0.1"
       d="m 475.673,270.065 c 12.637,-13.865 37.965,-19.194 46.352,-20.62 l -36.708,1.938 c -5.855,0.309 -10.343,5.425 -10.027,11.427 l 0.383,7.255" /><path
       inkscape:connector-curvature="0"
       id="path118"
       style="fill:#ebb044;fill-opacity:1;fill-rule:nonzero;stroke:none;stroke-width:0.1"
       d="m 529.254,662.651 -3.066,0.086 c -1.681,0.048 -3.005,1.449 -2.958,3.131 l 0.881,31.216 c 0.048,1.681 1.449,3.005 3.131,2.958 l 3.065,-0.086 c 1.682,-0.048 3.006,-1.449 2.959,-3.131 l -0.881,-31.216 c -0.048,-1.681 -1.449,-3.006 -3.131,-2.958" /><path
       inkscape:connector-curvature="0"
       id="path120"
       style="fill:#ebb044;fill-opacity:1;fill-rule:nonzero;stroke:none;stroke-width:0.1"
       d="m 478.12,657.119 -2.991,-1.779 c -1.348,-0.801 -3.09,-0.359 -3.891,0.989 l -16.177,27.194 c -0.802,1.347 -0.359,3.089 0.988,3.891 l 2.991,1.779 c 1.348,0.802 3.09,0.359 3.891,-0.988 l 16.177,-27.194 c 0.802,-1.348 0.36,-3.09 -0.988,-3.892" /><path
       inkscape:connector-curvature="0"
       id="path122"
       style="fill:#ebb044;fill-opacity:1;fill-rule:nonzero;stroke:none;stroke-width:0.1"
       d="m 578.46,654.141 2.433,-1.64 c 1.425,-0.961 3.359,-0.584 4.32,0.841 l 17.38,25.785 c 0.96,1.425 0.584,3.36 -0.842,4.32 l -2.432,1.64 c -1.425,0.961 -3.36,0.584 -4.32,-0.841 l -17.38,-25.785 c -0.961,-1.425 -0.584,-3.36 0.841,-4.32" /><path
       inkscape:connector-curvature="0"
       id="path124"
       style="fill:#e1cfb5;fill-opacity:1;fill-rule:nonzero;stroke:none;stroke-width:0.1"
       d="m 461.822,376.084 16.289,-0.878 9.52,10.964 -5.194,4.34 -10.906,-3.828 -3.056,2.083 -11.101,-4.255 c 0,0 4.668,-8.427 4.448,-8.426" /><path
       inkscape:connector-curvature="0"
       id="path126"
       style="fill:#145566;fill-opacity:1;fill-rule:nonzero;stroke:none;stroke-width:0.1"
       d="m 360.722,421.636 54.011,-45.943 46.178,10.677 7.05,-13.355 -54.031,-24.721 -18.1,5.612 -46.518,45.478 11.41,22.252" /><path
       inkscape:connector-curvature="0"
       id="path128"
       style="fill:#eac5b0;fill-opacity:1;fill-rule:nonzero;stroke:none;stroke-width:0.1"
       d="m 956.511,582.192 c -0.331,-0.411 -0.934,-0.474 -1.345,-0.142 -4.701,3.805 -10.601,5.551 -16.618,4.918 -6.015,-0.634 -11.424,-3.572 -15.229,-8.273 -3.805,-4.702 -5.551,-10.604 -4.918,-16.619 0.056,-0.525 -0.325,-0.995 -0.851,-1.051 l -0.103,-0.005 c -0.483,10e-4 -0.896,0.365 -0.948,0.856 -0.687,6.523 1.207,12.923 5.334,18.022 4.127,5.098 9.992,8.285 16.515,8.972 6.523,0.688 12.923,-1.207 18.022,-5.333 0.41,-0.332 0.474,-0.935 0.141,-1.345 z m -79.596,-20.704 c -0.105,-0.036 -0.211,-0.053 -0.316,-0.053 -0.395,0.001 -0.764,0.249 -0.901,0.643 -3.653,10.526 -15.11,16.16 -25.655,12.689 l -0.133,-0.042 -0.182,-0.058 c -0.498,-0.174 -1.044,0.091 -1.217,0.59 -0.095,0.273 -0.054,0.559 0.08,0.791 -1.94,8.315 -8.088,15.155 -16.175,17.936 -12.995,4.468 -27.205,-2.469 -31.673,-15.465 -0.172,-0.5 -0.716,-0.766 -1.216,-0.594 -0.499,0.172 -0.764,0.716 -0.593,1.215 4.811,13.994 20.11,21.464 34.104,16.652 8.583,-2.951 15.137,-10.147 17.323,-18.926 11.273,3.186 23.254,-2.953 27.144,-14.161 0.173,-0.499 -0.091,-1.044 -0.59,-1.217 z m 106.027,48.225 c 0.042,17.742 -14.302,32.162 -32.045,32.212 -2.396,0.006 -5.993,-1.291 -8.196,-0.011 -1.84,1.069 -2.521,3.616 -3.933,5.116 -1.724,1.829 -3.694,3.427 -5.842,4.733 -4.331,2.633 -9.351,4.036 -14.419,4.05 -4.14,0.011 -8.069,-0.882 -11.608,-2.488 l -0.059,-0.028 -0.015,-0.005 c -0.224,-0.103 -0.448,-0.208 -0.67,-0.317 l -0.029,0.027 c -2.845,-1.252 -13.285,-6.645 -14.146,-18.5 6.147,0.197 12.322,-2.174 16.776,-6.974 4.522,4.432 11.039,6.382 17.27,5.096 5.002,-1.032 9.303,-3.95 12.11,-8.218 2.807,-4.266 3.785,-9.371 2.753,-14.374 -0.094,-0.452 -0.493,-0.764 -0.938,-0.762 l -0.192,0.02 c -0.517,0.106 -0.85,0.612 -0.744,1.129 1.918,9.294 -4.082,18.414 -13.376,20.332 -5.923,1.223 -12.134,-0.799 -16.211,-5.273 -0.355,-0.39 -0.961,-0.418 -1.351,-0.062 l -0.132,0.147 c -7.127,8.392 -19.751,9.438 -28.161,2.323 -0.403,-0.341 -1.006,-0.291 -1.348,0.113 -0.341,0.403 -0.29,1.006 0.113,1.347 3.385,2.864 7.394,4.516 11.498,5.011 0.727,12.124 10.544,18.095 14.508,20.022 -6.618,5.501 -15.113,8.824 -24.392,8.85 -13.725,0.038 -25.78,-7.142 -32.59,-17.96 -2.29,0.502 -4.665,0.777 -7.104,0.784 -11.995,0.034 -23.321,-6.571 -29.215,-17.016 -1.487,-2.635 -2.474,-5.391 -3.283,-8.291 -0.109,-0.391 -0.24,-0.741 -0.388,-1.06 6.901,2.565 16.528,4.469 27.084,1.562 0.509,-0.141 0.808,-0.667 0.668,-1.176 -0.14,-0.509 -0.665,-0.808 -1.176,-0.668 -22.007,6.06 -40.202,-9.567 -40.383,-9.726 -0.138,-0.121 -0.301,-0.194 -0.469,-0.223 -2.365,-1.858 -4.546,-3.936 -6.401,-6.394 -5.507,-7.3 -8.521,-16.298 -8.547,-25.44 -0.065,-23.471 18.909,-42.552 42.381,-42.617 2.646,-0.007 5.457,1.494 8.028,0.62 -1.385,3.811 -2.16,8.593 -0.599,13.625 0.156,0.504 0.692,0.787 1.196,0.63 0.505,-0.157 0.786,-0.692 0.63,-1.197 -3.223,-10.393 4.842,-20.067 4.923,-20.163 0.1,-0.118 0.162,-0.253 0.196,-0.393 1.41,-1.759 2.939,-3.139 4.977,-4.394 5.547,-3.418 12.026,-5.275 18.542,-5.293 5.52,-0.015 10.745,1.235 15.41,3.472 l 0.182,0.136 c 14.26,7.989 16.389,23.789 16.408,23.948 0.066,0.524 0.541,0.897 1.067,0.831 0.524,-0.066 0.896,-0.542 0.831,-1.066 -0.075,-0.611 -1.796,-13.531 -12.842,-22.339 6.613,-7.62 16.351,-12.458 27.232,-12.488 5.297,-0.015 10.797,1.525 15.809,3.483 5.287,2.066 9.122,-5.79 11.13,-9.17 2.958,-4.978 4.566,-11.1 8.784,-15.256 6.08,-5.992 12.677,-0.663 13.395,6.665 0.411,4.19 0.296,8.406 -0.194,12.584 -0.241,2.055 -0.668,4.421 0.266,6.373 1.116,2.331 3.243,1.964 5.467,2.489 4.271,1.007 8.296,2.978 11.719,5.723 6.959,5.582 11.098,14.161 11.122,23.082 0.01,3.455 -0.579,6.769 -1.656,9.855 -1.455,-0.625 -4.424,-1.671 -8.5,-1.947 -0.638,-0.043 -1.32,-0.068 -2.041,-0.065 -5.262,0.014 -12.622,1.435 -20.727,7.179 -0.43,0.305 -0.532,0.902 -0.227,1.333 0.306,0.431 0.902,0.532 1.333,0.227 16.708,-11.842 30.106,-4.653 30.239,-4.579 0.088,0.049 0.181,0.078 0.274,0.097 9.485,4.448 16.067,14.068 16.098,25.239 0.032,11.293 -6.643,21.033 -16.27,25.468" /><path
       inkscape:connector-curvature="0"
       id="path130"
       style="fill:#a39372;fill-opacity:1;fill-rule:nonzero;stroke:none;stroke-width:0.1"
       d="m 747.496,425.343 -10.148,6.86 2.743,4.465 7.99,-3.159 0.317,2.714 7.969,-6.929 -2.225,-5.026 -6.646,1.075" /><path
       inkscape:connector-curvature="0"
       id="path132"
       style="fill:#145566;fill-opacity:1;fill-rule:nonzero;stroke:none;stroke-width:0.1"
       d="m 846.498,440.226 -40.2,-26.041 -51.843,18.36 -3.905,-10.2 56.404,-35.242 56.347,20.804 -16.803,32.319" /><path
       inkscape:connector-curvature="0"
       id="path134"
       style="fill:#1a3151;fill-opacity:1;fill-rule:nonzero;stroke:none;stroke-width:0.1"
       d="m 847.329,119.651 v -5.75 l -14.744,-7.372 -7.372,7.372 7.372,7.372 h 0.951 l 0.237,-1.622 h 13.556" /><path
       inkscape:connector-curvature="0"
       id="path136"
       style="fill:#1a3151;fill-opacity:1;fill-rule:nonzero;stroke:none;stroke-width:0.1"
       d="m 847.329,119.651 h -13.556 l -0.237,1.622 h 13.793 v -1.622" /><path
       inkscape:connector-curvature="0"
       id="path138"
       style="fill:#145566;fill-opacity:1;fill-rule:nonzero;stroke:none;stroke-width:0.1"
       d="m 867.835,444.276 c 15.846,-0.953 32.088,-9.262 36.634,-24.689 0.375,-1.271 0.667,-2.571 0.773,-3.891 0.634,-7.926 -1.788,-13.781 0.499,-21.743 1.987,-6.917 3.788,-13.936 5.11,-21.014 1.914,-10.245 3.681,-20.443 5.073,-30.613 1.541,-11.264 2.628,-22.494 2.942,-33.659 0.035,-1.235 0.284,-4.686 0.423,-8.81 0.292,-8.637 0.105,-20.19 -3.532,-20.622 -0.681,-0.081 -1.338,0.221 -1.937,0.511 -4.678,2.273 -8.364,5.241 -12.489,7.834 -1.45,0.911 -2.954,1.777 -4.576,2.55 -3.25,1.547 -6.721,2.726 -10.282,3.66 5.988,-0.312 6.733,0.797 6.733,0.797 0,0 -5.402,21.694 -9.195,40.566 -1.954,9.725 -3.482,18.701 -3.622,23.569 -0.421,14.641 -2.295,62.997 -2.295,62.997 l -9.088,18.495 -1.677,-0.016 c 0.12,0.014 0.241,0.029 0.362,0.043 -0.17,1.579 -0.098,2.889 0.144,4.035" /><path
       inkscape:connector-curvature="0"
       id="path140"
       style="fill:#145566;fill-opacity:1;fill-rule:nonzero;stroke:none;stroke-width:0.1"
       d="m 800.426,288.846 c 0.93,9.588 1.896,19.174 3.076,28.735 2.352,19.07 5.555,38.095 10.974,56.555 2.07,7.053 4.458,14.007 6.845,20.959 2.907,8.465 5.814,16.93 8.721,25.395 3.613,10.521 9.71,17.933 20.387,21.614 1.907,0.657 3.914,1.164 5.983,1.535 0.05,-0.217 0.097,-0.438 0.125,-0.67 0.124,-1.011 0.413,-2.131 1.052,-2.864 l -7.008,-0.067 c 0,0 -19.771,-69.095 -20.498,-81.003 -0.276,-4.527 -1.195,-14.409 -2.217,-24.819 -1.617,-16.475 -3.494,-34.274 -3.494,-34.274 0,0 8.681,-0.205 21.238,-1.141 -0.929,0.021 -1.858,0.046 -2.786,0.054 -8.734,0.077 -17.793,-3.633 -26.155,-6.039 -0.601,-0.172 -1.199,-0.34 -1.792,-0.497 -3.407,-0.904 -6.178,-3.387 -9.008,-5.334 -4.18,-2.876 -6.013,-4.015 -5.443,1.861" /><path
       inkscape:connector-curvature="0"
       id="path142"
       style="fill:#145566;fill-opacity:1;fill-rule:nonzero;stroke:none;stroke-width:0.1"
       d="m 816.669,295.25 c 8.362,2.406 17.421,6.116 26.155,6.039 0.928,-0.008 1.857,-0.033 2.786,-0.054 0.777,-0.058 1.569,-0.119 2.374,-0.183 5.853,-0.463 12.429,-1.081 19.294,-1.901 0.337,-0.04 0.673,-0.079 1.012,-0.12 8.781,-1.879 14.482,-2.614 18.184,-2.807 3.56,-0.934 7.031,-2.113 10.281,-3.661 1.622,-0.772 3.126,-1.638 4.576,-2.55 l 0.047,-9.382 -16.742,-159.358 H 870.91 v -1.622 h -0.079 l -15.092,106.89 -0.063,0.602 -8.268,-107.492 h -0.079 v 1.622 h -13.793 l -17.494,119.7 0.627,54.277" /><path
       inkscape:connector-curvature="0"
       id="path144"
       style="fill:#1a3151;fill-opacity:1;fill-rule:nonzero;stroke:none;stroke-width:0.1"
       d="m 884.636,121.273 h 1.018 l 7.372,-7.372 -7.372,-7.372 -14.744,7.372 v 5.75 h 13.556 l 0.17,1.622" /><path
       inkscape:connector-curvature="0"
       id="path146"
       style="fill:#1a3151;fill-opacity:1;fill-rule:nonzero;stroke:none;stroke-width:0.1"
       d="m 884.636,121.273 -0.17,-1.622 H 870.91 v 1.622 h 13.726" /><path
       inkscape:connector-curvature="0"
       id="path148"
       style="fill:#f1f1f1;fill-opacity:1;fill-rule:nonzero;stroke:none;stroke-width:0.1"
       d="m 824.373,299.942 c 0,0 8.68,-0.205 21.237,-1.141 0.777,-0.058 1.569,-0.119 2.375,-0.183 5.852,-0.463 12.428,-1.081 19.293,-1.9 0.337,-0.041 0.673,-0.08 1.011,-0.121 8.782,-1.879 14.483,-2.614 18.184,-2.807 5.988,-0.312 6.733,0.797 6.733,0.797 0,0 -5.402,21.694 -9.195,40.565 -1.954,9.726 -3.482,18.702 -3.622,23.57 -0.421,14.641 -2.295,62.997 -2.295,62.997 l -9.088,18.495 -1.677,-0.016 c -2.317,-0.274 -4.634,-0.548 -6.95,-0.822 -0.599,-0.071 -1.22,-0.139 -1.793,0.049 -0.288,0.095 -0.537,0.243 -0.753,0.43 l -0.244,0.25 -7.008,-0.067 c 0,0 -19.772,-69.095 -20.498,-81.003 -0.276,-4.527 -1.195,-14.409 -2.217,-24.819 -1.617,-16.475 -3.493,-34.274 -3.493,-34.274" /><path
       inkscape:connector-curvature="0"
       id="path150"
       style="fill:#e1cfb5;fill-opacity:1;fill-rule:nonzero;stroke:none;stroke-width:0.1"
       d="m 845.316,465.658 c 0.455,1.865 -0.419,3.763 -0.834,5.639 -0.104,0.474 -0.124,0.963 -0.094,1.458 3.33,0.576 6.691,1.813 9.138,2.881 5.095,2.224 15.017,4.593 20.307,1.966 4.183,-2.077 2.898,-8.7 2.688,-12.889 -0.055,-1.077 -0.138,-2.173 0.111,-3.22 0.255,-1.078 0.926,-1.806 1.344,-2.713 -0.466,-1.632 -1.231,-3.182 -2.475,-4.587 -3.352,-3.784 -6.762,-5.645 -7.666,-9.917 -0.242,-1.146 -0.314,-2.456 -0.144,-4.035 -0.121,-0.014 -0.242,-0.029 -0.362,-0.043 -2.317,-0.274 -4.634,-0.548 -6.95,-0.822 -0.599,-0.071 -1.22,-0.139 -1.793,0.049 -0.288,0.095 -0.537,0.243 -0.753,0.43 l -0.244,0.25 c -0.64,0.733 -0.928,1.853 -1.052,2.864 -0.028,0.232 -0.074,0.453 -0.125,0.67 -0.906,3.899 -5.213,5.655 -7.533,9.114 -2.63,3.919 -4.007,8.487 -4.602,13.138 l -0.03,0.238 c 0.34,-0.186 0.696,-0.345 1.069,-0.471" /><path
       inkscape:connector-curvature="0"
       id="path152"
       style="fill:#1a3151;fill-opacity:1;fill-rule:nonzero;stroke:none;stroke-width:0.1"
       d="m 828.666,487.772 c -0.151,-4.801 3.477,-12.599 7.938,-14.555 0.867,-0.381 1.827,-0.604 2.842,-0.712 0.938,-2.603 2.508,-5.123 4.801,-6.376 0.34,-0.186 0.696,-0.345 1.069,-0.471 0.455,1.865 -0.419,3.763 -0.834,5.639 -0.104,0.474 -0.124,0.963 -0.094,1.458 3.33,0.576 6.691,1.813 9.138,2.881 5.095,2.224 15.017,4.593 20.307,1.966 4.183,-2.077 2.898,-8.7 2.688,-12.889 -0.055,-1.077 -0.138,-2.173 0.111,-3.22 0.255,-1.078 0.926,-1.806 1.344,-2.713 0.146,-0.317 0.262,-0.654 0.318,-1.037 3.425,1.538 5.497,5.4 7.431,8.54 0.968,1.57 1.872,3.21 2.585,4.993 3.182,7.967 2.009,18.707 -2.877,26.345 -1.41,2.205 -3.128,4.184 -5.147,5.416 -4.836,2.95 -11.568,3.221 -16.779,5.243 -7.328,2.845 -11.053,0.28 -17.972,-1.942 -2.766,-0.889 -5.945,-1.66 -7.41,-4.28 -0.809,-1.447 -0.929,-3.233 -1.745,-4.676 -1.052,-1.858 -3.048,-2.828 -4.779,-3.997 -2.008,-1.357 -2.865,-3.365 -2.935,-5.613" /><path
       inkscape:connector-curvature="0"
       id="path154"
       style="fill:#e1cfb5;fill-opacity:1;fill-rule:nonzero;stroke:none;stroke-width:0.1"
       d="m 958.599,491.712 1.794,12.118 -5.145,0.992 -3.066,-8.026 -2.216,1.599 -0.272,-10.557 5.21,-1.754 3.695,5.628" /><path
       inkscape:connector-curvature="0"
       id="path156"
       style="fill:#145566;fill-opacity:1;fill-rule:nonzero;stroke:none;stroke-width:0.1"
       d="m 880.762,428.75 46.354,12.06 21.472,50.634 10.159,-4.009 -12.101,-65.399 -53.397,-27.505 -12.487,34.219" /><path
       inkscape:connector-curvature="0"
       id="path158"
       style="fill:#1a3151;fill-opacity:1;fill-rule:nonzero;stroke:none;stroke-width:0.1"
       d="m 769.572,117.782 0.647,-6.37 -12.092,-7.664 -7.017,5.722 5.723,7.017 12.091,7.664 0.648,-6.369" /><path
       inkscape:connector-curvature="0"
       id="path160"
       style="fill:#1a3151;fill-opacity:1;fill-rule:nonzero;stroke:none;stroke-width:0.1"
       d="m 770.04,312.09 1.966,-19.345 -17.273,-86.448 15.297,-86.395 -12.378,-3.811 -40.022,102.722 -2.195,31.403 5.42,65.053 49.185,-3.179" /><path
       inkscape:connector-curvature="0"
       id="path162"
       style="fill:#1a3151;fill-opacity:1;fill-rule:nonzero;stroke:none;stroke-width:0.1"
       d="m 676.232,305.504 -0.397,-81.723 16.106,-105.259 11.841,0.08 6.826,97.269 15.551,97.327 -49.927,-7.694" /><path
       inkscape:connector-curvature="0"
       id="path164"
       style="fill:#1a3151;fill-opacity:1;fill-rule:nonzero;stroke:none;stroke-width:0.1"
       d="m 703.747,113.608 -12.761,-6.488 -6.445,6.359 6.359,6.445 12.804,0.086 0.043,-6.402" /><path
       inkscape:connector-curvature="0"
       id="path166"
       style="fill:#3ababa;fill-opacity:1;fill-rule:nonzero;stroke:none;stroke-width:0.1"
       d="m 666.254,317.498 c 8.542,26.46 9.452,54.245 11.937,81.81 0.736,8.132 1.519,16.445 4.904,23.876 3.887,8.533 10.314,13.037 17.801,15.497 9.529,3.132 20.775,2.952 30.684,3.556 9.401,0.296 17.718,-35.046 27.308,-52.178 5.877,-10.499 11.933,-19.785 15.897,-31.238 3.805,-10.991 7.458,-22.176 9.672,-33.613 3.342,-17.266 11.889,-29.323 3.726,-35.197 -0.749,-0.247 -1.469,-0.492 -2.153,-0.737 -13.39,-4.797 -27.245,-8.347 -41.354,-10.21 -12.516,-1.651 -25.227,-1.952 -37.795,-0.713 -17.203,1.695 -33.87,4.125 -49.036,13.097 2.803,8.683 5.606,17.366 8.409,26.05" /><path
       inkscape:connector-curvature="0"
       id="path168"
       style="fill:#145566;fill-opacity:1;fill-rule:nonzero;stroke:none;stroke-width:0.1"
       d="m 600.914,464.391 52.967,26.488 97.863,-195.692 -52.967,-26.488 -97.863,195.692" /><path
       inkscape:connector-curvature="0"
       id="path170"
       style="fill:#e1cfb5;fill-opacity:1;fill-rule:nonzero;stroke:none;stroke-width:0.1"
       d="m 653.881,490.879 -50.136,34.054 -2.831,-60.542 z" /><path
       inkscape:connector-curvature="0"
       id="path172"
       style="fill:#1a3151;fill-opacity:1;fill-rule:nonzero;stroke:none;stroke-width:0.1"
       d="m 622.556,512.156 -18.811,12.777 -1.062,-22.715 z" /><path
       inkscape:connector-curvature="0"
       id="path174"
       style="fill:#b5b7b8;fill-opacity:1;fill-rule:nonzero;stroke:none;stroke-width:0.1"
       d="m 719.03,245.805 39.324,19.665 c 3.767,1.884 5.294,6.466 3.41,10.233 l -10.02,19.484 -52.967,-26.488 10.02,-19.484 c 1.884,-3.767 6.465,-5.294 10.233,-3.41" /><path
       inkscape:connector-curvature="0"
       id="path176"
       style="fill:#ffffff;fill-opacity:1;fill-rule:nonzero;stroke:none;stroke-width:0.1"
       d="m 698.777,268.699 52.967,26.488 -4.954,9.905 -53.173,-26.076 5.16,-10.317" /><path
       inkscape:connector-curvature="0"
       id="path178"
       style="fill:#a39372;fill-opacity:1;fill-rule:nonzero;stroke:none;stroke-width:0.1"
       d="m 734.53,334.935 -9.608,-8.534 -3.827,3.948 5.286,7.3 -2.676,1.028 9.111,6.301 4.532,-3.567 -2.818,-6.476" /><path
       inkscape:connector-curvature="0"
       id="path180"
       style="fill:#3ababa;fill-opacity:1;fill-rule:nonzero;stroke:none;stroke-width:0.1"
       d="m 737.048,406.721 16.593,-19.806 -24.625,-43.037 9.353,-6.617 50.465,48.179 -39.265,55.668 -12.521,-34.387" /><path
       inkscape:connector-curvature="0"
       id="path182"
       style="fill:#a39372;fill-opacity:1;fill-rule:nonzero;stroke:none;stroke-width:0.1"
       d="m 736.18,468.541 c -5.356,16.168 -28.953,21.799 -34.438,3.008 -1.648,-5.647 -2.641,-11.638 -1.52,-17.413 1.121,-5.775 4.65,-11.316 10.036,-13.683 l 0.092,-0.038 c -0.21,-1.499 -0.42,-2.998 -0.631,-4.497 -0.045,-0.322 -0.083,-0.677 0.098,-0.947 0.207,-0.307 0.616,-0.388 0.982,-0.443 1.789,-0.267 3.578,-0.534 5.367,-0.801 0.887,-0.132 1.811,-0.262 2.665,0.012 1.869,0.598 2.646,2.838 2.728,4.799 0.02,0.469 0.015,0.943 0.008,1.418 10.589,3.627 18.114,18.015 14.613,28.585" /><path
       inkscape:connector-curvature="0"
       id="path184"
       style="fill:#1a3151;fill-opacity:1;fill-rule:nonzero;stroke:none;stroke-width:0.1"
       d="m 707.432,496.15 c -4.321,0.642 -8,-3.547 -11.987,-5.747 -3.316,-1.83 -7.076,-2.316 -10.514,-3.832 -3.437,-1.518 -6.816,-4.683 -6.888,-8.647 -3.483,1.813 -7.257,3.672 -11.16,2.92 -3.903,-0.752 -7.526,-5.412 -5.971,-9.253 1.393,-3.44 5.88,-4.25 7.373,-7.636 2.361,-5.356 -4.024,-13.674 0.334,-17.226 1.047,-0.854 2.472,-1.061 3.502,-1.94 1.278,-1.092 1.689,-2.967 2.258,-4.635 2.58,-7.558 10.199,-12.495 17.724,-11.485 4.679,2.193 8.41,6.721 10.081,11.906 2.015,6.249 -1.328,8.431 -1.892,14.297 -0.617,6.411 1.422,13.201 5.458,18.18 2.627,3.24 6.386,6.032 10.357,6.411 1.615,0.154 1.107,-1.193 2.923,0.057 0.78,0.536 1.844,2.563 2.065,3.536 -4.346,3.495 -7.979,12.248 -13.663,13.094" /><path
       inkscape:connector-curvature="0"
       id="path186"
       style="fill:#1a3151;fill-opacity:1;fill-rule:nonzero;stroke:none;stroke-width:0.1"
       d="m 754.161,487.837 c 2.229,-0.62 4.649,-0.53 6.772,-1.461 3.19,-1.398 2.996,-4.708 3.899,-7.584 1,-3.184 2.453,-7.458 4.553,-9.934 1.513,-1.784 3.631,-2.801 5.474,-4.178 1.844,-1.377 3.538,-3.41 3.499,-5.892 -0.037,-2.351 -1.618,-4.463 -1.849,-6.811 -0.282,-3.501 0.323,-5.294 -0.756,-8.873 -0.557,-1.846 -1.18,-3.802 -2.566,-5.061 -1.827,-1.66 -4.428,-1.628 -6.713,-1.246 -2.285,0.382 -4.646,1.016 -6.899,0.258 -4.886,-1.643 -3.974,-6.585 -5.274,-10.727 -1.98,-6.302 -9.287,-9.98 -14.878,-7.739 -4.74,1.9 -7.484,7.404 -7.27,12.838 0.107,2.72 1.19,5.255 1.269,7.978 0.076,2.626 -1.404,6.262 0.975,8.346 0.581,0.508 1.323,0.776 1.845,1.354 0.421,0.468 0.655,1.095 0.801,1.721 0.506,2.17 0.029,4.537 -1.251,6.199 -0.919,1.194 -2.237,2.067 -2.8,3.507 -0.646,1.651 -0.135,3.582 -0.026,5.406 0.264,4.41 -2.148,8.735 -5.821,10.438 -2.421,1.122 -4.603,1.784 -6.719,3.491 -0.322,0.26 -5.136,4.515 -5.26,3.596 0.216,1.599 1.15,3 2.096,4.284 1.556,2.11 3.284,4.166 5.475,5.43 7.087,4.088 7.429,-5.412 13.117,-4.162 1.372,0.301 2.405,1.559 3.64,2.31 2.333,1.418 5.199,0.911 7.584,-0.152 2.386,-1.063 4.572,-2.637 7.083,-3.336" /><path
       inkscape:connector-curvature="0"
       id="path188"
       style="fill:#a39372;fill-opacity:1;fill-rule:nonzero;stroke:none;stroke-width:0.1"
       d="m 660.666,340.408 6.984,1.493 8.755,-6.707 -6.614,-7.716 -6.616,5.408 -2.509,7.522" /></g></svg>