<?xml version="1.0" encoding="UTF-8" standalone="no"?>
<svg
   xmlns:dc="http://purl.org/dc/elements/1.1/"
   xmlns:cc="http://creativecommons.org/ns#"
   xmlns:rdf="http://www.w3.org/1999/02/22-rdf-syntax-ns#"
   xmlns:svg="http://www.w3.org/2000/svg"
   xmlns="http://www.w3.org/2000/svg"
   viewBox="0 0 1483.1997 964.0934"
   height="964.09344"
   width="1483.1997"
   xml:space="preserve"
   id="svg2"
   version="1.1"><metadata
     id="metadata8"><rdf:RDF><cc:Work
         rdf:about=""><dc:format>image/svg+xml</dc:format><dc:type
           rdf:resource="http://purl.org/dc/dcmitype/StillImage" /><dc:title></dc:title></cc:Work></rdf:RDF></metadata><defs
     id="defs6" /><g
     transform="matrix(1.3333333,0,0,-1.3333333,-83.064529,990.88558)"
     id="g10"><path
       d="m 1008.63,20.0941 c -6.81,0 -13.65,0.2321 -20.571,0.7989 -26.436,2.1633 -53.234,3.2441 -79.539,6.332 -60.371,7.0871 -120.77,7.5059 -181.58,7.5059 -24.145,0 -48.285,0.198 -72.425,0.198 -35.148,0 -70.287,-0.4187 -105.365,-2.4777 -54.719,-3.2114 -109.522,-3.7231 -164.34,-3.7231 -8.275,0 -16.559,0.011 -24.834,0.027 -0.53,8e-4 -1.06,0.0019 -1.589,0.0019 -30.358,0 -60.596,-1.6398 -90.908,-2.7988 -30.443,-1.1633 -60.048,-3.075 -90.315,-3.075 -2.731,0 -5.469,0.0156 -8.212,0.0488 -30.244,0.3649 -76.2954,8.0918 -97.8723,27.7852 -12.8102,11.7008 -11.0734,39.8508 1.7562,51.1328 5.6043,4.928 14.6395,8.788 22.0204,11.137 21.0247,6.69 42.4197,6.706 64.3897,6.845 0.269,0.002 0.537,0.002 0.807,0.002 15.16,0 30.922,-2.68 45.452,-6.402 13.218,-3.387 26.724,-4.574 40.169,-6.683 11.002,-1.725 22.773,-2.552 34.414,-2.552 7.574,10e-4 15.095,0.35 22.308,1.03 19.521,1.839 39.181,2.694 58.757,4.144 24.312,1.8 48.103,5.701 72.328,7.793 12.128,1.047 23.974,3.643 36.075,4.823 32.092,3.13 64.241,3.808 96.391,3.892 2.606,0.007 5.212,0.01 7.818,0.01 15.306,0 30.611,-0.101 45.909,-0.101 12.441,0 24.877,0.033 37.311,0.033 25.115,0 50.22,-0.134 75.299,-0.939 l 4.924,-55.9949 17.479,-0.266 -0.032,-2.1012 0.1,-0.0019 8.796,56.973 c 5.881,-0.342 11.759,-0.733 17.637,-1.18 l 3.394,-56.2469 0.1,-0.002 0.032,2.102 17.564,-0.268 8.423,52.8769 c 4.336,-0.315 8.663,-0.799 12.978,-1.629 13.019,-2.505 26.163,-4.792 39.502,-5.238 11.412,-0.382 22.857,-0.508 34.317,-0.508 20.384,0 40.806,0.398 61.123,0.463 2.036,0.006 4.871,0.017 8.389,0.017 45.48,0 203.88,-1.834 192.52,-38.9018 -4.37,-14.2453 -29.76,-32.784 -44,-38.752 -17.99,-7.539 -37.66,-11.9992 -57.46,-13.5023 -16.69,-1.268 -32.96,-2.6278 -49.44,-2.6278"
       style="fill:#f0e4e4;fill-opacity:1;fill-rule:nonzero;stroke:none;stroke-width:0.1"
       id="path16" /><path
       d="m 589.799,560.646 c -0.266,-0.176 -0.519,-0.372 -0.752,-0.593 -2.178,-2.062 -1.35,-4.941 -2.708,-7.234 -0.605,-1.023 -3.958,-2.204 -2.738,-3.751 0.455,-0.568 1.823,-2.61 3.323,-4.573 2.187,-2.862 1.852,-6.689 1.829,-10.036 -0.032,-4.5 -0.063,-8.999 -0.095,-13.499 -0.027,-3.915 -0.057,-7.851 -0.724,-11.709 -1.61,-9.308 -6.702,-16.628 -11.239,-24.549 -4.811,-8.401 -10.02,-17.114 -13.593,-26.126 -1.264,-3.186 -2.283,-6.597 -1.873,-10 1.027,-8.53 8.95,-9.58 14.78,-4.706 2.449,2.047 4.345,4.667 6.112,7.324 4.764,7.161 8.793,14.811 12.002,22.791 1.496,3.719 2.814,7.508 4.131,11.295 3.395,9.764 5.13,18.908 5.56,29.229 -0.207,4.844 -0.938,9.64 -1.559,14.442 -0.38,2.933 -2.529,9.343 0.168,11.501 0.443,0.355 0.965,0.612 1.355,1.023 0.441,0.463 0.675,1.081 0.88,1.687 0.751,2.22 1.344,4.555 1.56,6.897 0.384,4.185 -4.726,8.344 -7.417,10.878 -0.67,0.631 -1.385,1.262 -2.263,1.54 -1.427,0.452 -2.956,-0.114 -4.345,-0.674 -0.822,-0.33 -1.66,-0.671 -2.394,-1.157"
       style="fill:#d39689;fill-opacity:1;fill-rule:nonzero;stroke:none;stroke-width:0.1"
       id="path18" /><path
       d="m 595.663,453.447 c 5.691,13.741 9.419,28.212 11.134,42.178 -5.754,1.969 -11.508,3.94 -17.262,5.909 -0.784,0.269 -1.65,0.537 -2.419,0.227 -0.631,-0.253 -1.053,-0.842 -1.436,-1.405 -4.964,-7.312 -9.282,-15.302 -15.692,-21.501 -4.52,-4.371 -9.197,-8.137 -13.57,-12.73 -7.148,-7.506 -14.606,-14.757 -21.595,-22.41 -6.272,-6.868 -12.719,-14.032 -15.548,-22.892 -6.042,-18.917 13.96,-35.751 31.252,-24.658 20.436,13.112 35.562,34.164 45.136,57.282"
       style="fill:#353a85;fill-opacity:1;fill-rule:nonzero;stroke:none;stroke-width:0.1"
       id="path20" /><path
       d="m 876.924,353.701 8.795,-3.652 7.631,3.393 1.543,-1.282 -1.463,-1.979 7.143,0.97 4.988,-3.151 0.542,-7.892 -4.495,-6.741 -7.774,0.347 -7.839,5.052 -12.247,4.471 3.176,10.464"
       style="fill:#bf7d6d;fill-opacity:1;fill-rule:nonzero;stroke:none;stroke-width:0.1"
       id="path22" /><path
       d="m 883.376,355.653 -42.249,38.407 -32.208,75.753 -26.309,-4.386 19.15,-58.932 24.684,-50.383 56.228,-20.215 0.704,19.756"
       style="fill:#5d66d3;fill-opacity:1;fill-rule:nonzero;stroke:none;stroke-width:0.1"
       id="path24" /><path
       d="m 399.733,599.642 -14.469,-6.234 c -6.903,-2.974 -10.087,-10.981 -7.113,-17.883 l 24.054,-55.827 c 2.974,-6.903 10.98,-10.087 17.883,-7.113 l 14.469,6.234 -34.824,80.823"
       style="fill:#8cabef;fill-opacity:1;fill-rule:nonzero;stroke:none;stroke-width:0.1"
       id="path26" /><path
       d="M 801.464,724.82 C 666.514,760.209 496.828,680.417 496.828,680.417 l -0.038,0.088 -111.245,-47.932 63.202,-146.684 111.245,47.931 -0.038,0.088 c 0,0 174.541,68.523 241.51,190.912"
       style="fill:#babcbe;fill-opacity:1;fill-rule:nonzero;stroke:none;stroke-width:0.1"
       id="path28" /><path
       d="m 496.79,680.505 c 0,0 -44.191,60.073 -139.995,18.794 l -47.901,-20.639 9.348,-21.697 c 0,0 72.323,27.283 90.315,-14.475 l 88.233,38.017"
       style="fill:#5d66d3;fill-opacity:1;fill-rule:nonzero;stroke:none;stroke-width:0.1"
       id="path30" /><path
       d="m 559.992,533.82 c 0,0 13.308,-73.379 -82.495,-114.657 l -47.902,-20.64 -9.349,21.697 c 0,0 69.504,33.826 51.512,75.583 l 88.234,38.017"
       style="fill:#5d66d3;fill-opacity:1;fill-rule:nonzero;stroke:none;stroke-width:0.1"
       id="path32" /><path
       d="m 608.183,583.322 c -27.12,-11.685 -58.577,0.828 -70.261,27.947 -11.685,27.119 0.827,58.576 27.946,70.261 27.12,11.685 58.577,-0.827 70.262,-27.946 11.685,-27.12 -0.828,-58.577 -27.947,-70.262"
       style="fill:#f7f7f7;fill-opacity:1;fill-rule:nonzero;stroke:none;stroke-width:0.1"
       id="path34" /><path
       d="m 603.091,595.139 c -20.593,-8.873 -44.48,0.628 -53.353,21.221 -8.873,20.594 0.629,44.481 21.222,53.354 20.593,8.872 44.48,-0.629 53.353,-21.222 8.873,-20.593 -0.628,-44.48 -21.222,-53.353"
       style="fill:#8cabef;fill-opacity:1;fill-rule:nonzero;stroke:none;stroke-width:0.1"
       id="path36" /><path
       d="m 501.906,508.793 -63.201,146.685 16.253,7.003 63.202,-146.685 -16.254,-7.003"
       style="fill:#f7f7f7;fill-opacity:1;fill-rule:nonzero;stroke:none;stroke-width:0.1"
       id="path38" /><path
       d="m 402.205,519.698 -12.027,27.913 -12.027,27.914 c 0,0 -68.764,4.321 -96.725,-74.771 76.689,-34.002 120.779,18.944 120.779,18.944"
       style="fill:#474ebb;fill-opacity:1;fill-rule:nonzero;stroke:none;stroke-width:0.1"
       id="path40" /><path
       d="m 398.226,528.931 -8.048,18.68 -8.049,18.68 c 0,0 -46.017,2.892 -64.729,-50.037 51.321,-22.755 80.826,12.677 80.826,12.677"
       style="fill:#353a85;fill-opacity:1;fill-rule:nonzero;stroke:none;stroke-width:0.1"
       id="path42" /><path
       d="m 691.718,607.784 c 41.792,30.38 83.826,69.666 109.746,117.036 -52.232,13.698 -109.656,10.131 -160.441,0.623 l 50.695,-117.659"
       style="fill:#5d66d3;fill-opacity:1;fill-rule:nonzero;stroke:none;stroke-width:0.1"
       id="path44" /><path
       d="m 559.992,533.821 -0.038,0.087 c 0,0 32.403,12.729 74.634,36.992 -132.828,-21.776 -206.513,14.436 -239.041,38.461 l 53.2,-123.472 111.245,47.932"
       style="fill:#b8b7b5;fill-opacity:1;fill-rule:nonzero;stroke:none;stroke-width:0.1"
       id="path46" /><path
       d="m 473.883,573.833 28.023,-65.04 16.254,7.003 -23.06,53.521 c -7.457,1.309 -14.531,2.827 -21.217,4.516"
       style="fill:#dbdad8;fill-opacity:1;fill-rule:nonzero;stroke:none;stroke-width:0.1"
       id="path48" /><path
       d="m 658.538,702.982 -6.715,15.584 c 0,0 39.949,8.411 81.691,8.411 19.595,0 39.576,-1.852 56.022,-7.296 0,0 -5.093,0.27 -13.703,0.27 -23.488,0 -73.181,-2.006 -117.295,-16.969"
       style="fill:#727ad9;fill-opacity:1;fill-rule:nonzero;stroke:none;stroke-width:0.1"
       id="path50" /><path
       d="m 617.426,605.51 c -20.63,-0.41 -51.897,1.158 -70.55,20.834 0.512,-3.362 1.454,-6.714 2.862,-9.983 8.873,-20.594 32.76,-30.095 53.353,-21.222 5.673,2.444 10.498,6.032 14.335,10.371"
       style="fill:#7d9cd3;fill-opacity:1;fill-rule:nonzero;stroke:none;stroke-width:0.1"
       id="path52" /><path
       d="m 402.205,519.698 c 2.974,-6.903 10.98,-10.087 17.883,-7.113 l 14.469,6.234 v 0.001 c -0.017,0.008 -31.367,15.322 -57.491,61.472 0.072,-1.599 0.414,-3.211 1.085,-4.767 l 24.054,-55.827"
       style="fill:#7d9cd3;fill-opacity:1;fill-rule:nonzero;stroke:none;stroke-width:0.1"
       id="path54" /><path
       d="m 477.497,419.163 c 3.304,1.423 6.465,2.889 9.515,4.384 -22.956,-3.081 -44.691,-2.524 -62.122,-0.863 -2.882,-1.606 -4.644,-2.464 -4.644,-2.464 l 9.349,-21.697 47.902,20.64"
       style="fill:#525eb2;fill-opacity:1;fill-rule:nonzero;stroke:none;stroke-width:0.1"
       id="path56" /><path
       d="m 784.309,68.4488 -0.112,-7.3738 18.765,-9.7418 9.598,9.3109 -9.31,9.5981 -1.22,0.0187 -0.336,-2.0769 -17.385,0.2648"
       style="fill:#292949;fill-opacity:1;fill-rule:nonzero;stroke:none;stroke-width:0.1"
       id="path58" /><path
       d="m 737.773,71.2398 -1.306,0.0192 -9.598,-9.311 9.31,-9.598 19.053,9.1672 0.113,7.373 -17.386,0.2649 -0.186,2.0847"
       style="fill:#292949;fill-opacity:1;fill-rule:nonzero;stroke:none;stroke-width:0.1"
       id="path60" /><path
       d="m 742.27,348.995 c 2.68,12.557 4.803,24.151 5.077,30.453 0.825,18.951 4.164,81.534 4.164,81.534 l 11.938,23.775 2.135,-0.053 c -0.153,0.02 -0.306,0.041 -0.459,0.062 0.502,-0.068 -0.172,4.633 -0.345,5.049 -10.057,0.496 -23.11,-4.982 -29.577,-12.793 -4.785,-5.779 -7.685,-12.889 -10.513,-19.876 -7.961,-19.67 -11.714,-37.949 -15.852,-58.698 -2.639,-13.23 -5.091,-26.401 -7.063,-39.544 -2.185,-14.557 -3.79,-29.079 -4.411,-43.532 -0.068,-1.597 -0.453,-6.062 -0.712,-11.4 -0.542,-11.179 -0.532,-26.144 4.091,-26.773 0.865,-0.118 1.707,0.26 2.476,0.625 6.002,2.853 10.754,6.624 16.058,9.901 l 1.171,58.342 21.822,2.928"
       style="fill:#5d66d3;fill-opacity:1;fill-rule:nonzero;stroke:none;stroke-width:0.1"
       id="path62" /><path
       d="m 847.792,287.409 c -0.996,12.434 -2.036,24.867 -3.35,37.27 -2.62,24.741 -6.323,49.44 -12.859,73.451 -2.496,9.173 -5.4,18.225 -8.303,27.274 -3.535,11.019 -7.069,22.037 -10.604,33.055 -4.393,13.695 -12.011,23.411 -25.535,28.385 -2.415,0.888 -4.961,1.583 -7.588,2.104 -0.068,-0.281 -0.131,-0.565 -0.172,-0.865 -0.177,-1.306 -0.567,-2.752 -1.396,-3.689 l 8.923,-0.222 c 0,0 23.813,-89.86 24.504,-105.295 0.262,-5.867 1.237,-18.682 2.333,-32.183 l 13.64,-2.255 -0.198,-51.574 c 0.761,-0.235 1.52,-0.463 2.272,-0.679 4.32,-1.237 7.8,-4.505 11.366,-7.082 5.266,-3.804 7.577,-5.315 6.967,2.305"
       style="fill:#5d66d3;fill-opacity:1;fill-rule:nonzero;stroke:none;stroke-width:0.1"
       id="path64" /><path
       d="m 813.745,346.694 c 1.734,-21.366 3.773,-44.451 3.773,-44.451 0,0 -11.057,-0.098 -27.066,-1.067 1.184,0.01 2.367,0.024 3.549,0.016 11.123,-0.069 22.585,-5.05 33.186,-8.327 l 0.198,51.574 -13.64,2.255"
       style="fill:#5d6c7e;fill-opacity:1;fill-rule:nonzero;stroke:none;stroke-width:0.1"
       id="path66" /><path
       d="m 738.319,295.48 c -7.631,-0.288 -8.557,1.162 -8.557,1.162 0,0 7.306,27.99 12.508,52.353 l -21.822,-2.928 -1.171,-58.342 c 1.865,1.152 3.797,2.245 5.877,3.214 4.169,1.94 8.612,3.4 13.165,4.541"
       style="fill:#5d6c7e;fill-opacity:1;fill-rule:nonzero;stroke:none;stroke-width:0.1"
       id="path68" /><path
       d="m 827.187,292.865 c -10.601,3.277 -22.063,8.258 -33.187,8.327 -1.181,0.008 -2.364,-0.006 -3.547,-0.016 -0.991,-0.06 -2.001,-0.123 -3.028,-0.19 -7.462,-0.486 -15.848,-1.159 -24.605,-2.087 -0.431,-0.046 -0.859,-0.09 -1.291,-0.137 -11.218,-2.263 -18.493,-3.104 -23.21,-3.282 -4.553,-1.141 -8.996,-2.601 -13.165,-4.541 -2.08,-0.969 -4.012,-2.061 -5.877,-3.214 l -0.244,-12.148 18.175,-206.6899 17.479,-0.266 -0.032,-2.1012 0.1,-0.0019 21.326,138.128 0.092,0.779 8.409,-139.3609 0.1,-0.002 0.032,2.102 17.564,-0.268 24.637,154.6699 0.272,70.299"
       style="fill:#292949;fill-opacity:1;fill-rule:nonzero;stroke:none;stroke-width:0.1"
       id="path70" /><path
       d="m 813.745,346.694 c -1.096,13.5 -2.071,26.316 -2.333,32.183 -0.691,15.435 -24.504,105.295 -24.504,105.295 l -8.923,0.222 c -0.099,-0.113 -0.202,-0.222 -0.315,-0.318 -0.279,-0.239 -0.6,-0.426 -0.968,-0.543 -0.733,-0.233 -1.523,-0.132 -2.284,-0.029 -2.944,0.4 -5.889,0.8 -8.833,1.2 l -2.136,0.053 -11.938,-23.775 c 0,0 -3.339,-62.583 -4.164,-81.534 -0.274,-6.302 -2.397,-17.897 -5.077,-30.453 -5.202,-24.363 -12.508,-52.353 -12.508,-52.353 0,0 0.926,-1.45 8.557,-1.162 4.717,0.178 11.992,1.019 23.21,3.282 0.432,0.047 0.86,0.091 1.291,0.137 8.757,0.928 17.143,1.601 24.605,2.087 1.027,0.067 2.037,0.13 3.028,0.19 16.008,0.969 27.065,1.067 27.065,1.067 0,0 -2.039,23.085 -3.773,44.451"
       style="fill:#ffffff;fill-opacity:1;fill-rule:nonzero;stroke:none;stroke-width:0.1"
       id="path72" /><path
       d="m 792.467,543.744 c 2.614,-4.516 3.917,-9.74 4.215,-14.968 0.08,-1.391 0.196,-2.995 1.313,-3.803 1.195,-0.864 0.182,-2.806 1.066,-1.619 0.884,1.187 3.886,5.308 4.002,6.794 0.275,3.48 0.221,6.987 -0.158,10.459 -0.331,3.019 -0.982,6.17 -2.958,8.451 -1.173,1.352 -2.725,2.294 -4.254,3.207 -2.216,1.324 -4.5,2.659 -7.031,3.106 -4.363,0.772 -7.01,-0.847 -3.128,-3.886 2.781,-2.178 5.141,-4.646 6.933,-7.741"
       style="fill:#292949;fill-opacity:1;fill-rule:nonzero;stroke:none;stroke-width:0.1"
       id="path74" /><path
       d="m 766.246,484.054 c 5.994,-0.497 11.988,-0.993 17.982,-1.49 0.839,5.269 1.299,10.616 1.376,15.975 5.201,0.972 11.31,2.761 13.016,8.336 0.537,1.756 0.53,3.658 0.518,5.52 -0.051,7.694 -0.101,15.389 -0.152,23.084 -0.017,2.661 -0.049,5.403 -0.979,7.862 -1.633,4.314 -5.664,6.848 -9.604,8.426 -10.057,4.027 -21.709,3.721 -30.856,-2.289 -2.435,-1.6 -4.725,-3.647 -6.102,-6.405 -2.123,-4.252 -1.777,-9.468 -1.371,-14.34 0.375,-4.498 0.75,-8.996 1.125,-13.494 0.431,-5.173 1.278,-11.124 5.269,-13.811 2.12,-1.426 4.836,-1.66 6.672,-3.517 3.236,-3.275 1.86,-9.188 3.106,-13.857"
       style="fill:#bf7d6d;fill-opacity:1;fill-rule:nonzero;stroke:none;stroke-width:0.1"
       id="path76" /><path
       d="m 782.208,504.423 c -2.691,-1.89 -5.683,-2.026 -8.724,-1.136 -1.292,0.378 -0.776,2.581 0.518,2.203 2.52,-0.738 4.888,-0.69 7.128,0.883 1.127,0.792 2.199,-1.163 1.078,-1.95 z m 18.723,11.062 c -0.105,1.425 -0.775,5.599 -2.849,2.945 -0.542,-0.693 -0.665,-1.666 -0.686,-2.582 -0.022,-0.915 0.032,-1.856 -0.239,-2.72 -0.624,-1.986 -2.763,-2.911 -4.681,-2.899 -0.762,0.004 -1.541,0.122 -2.22,0.504 -0.66,0.371 -1.187,0.967 -1.702,1.552 -1.25,1.421 -2.5,2.841 -3.75,4.262 -2.149,2.442 -6.329,1.325 -9.173,0.912 -3.278,-0.476 -6.549,-1.523 -9.202,-3.752 -0.268,-0.225 -0.529,-0.461 -0.791,-0.697 -0.639,-0.575 -1.281,-1.145 -2.028,-1.526 -2.519,-1.286 -5.678,-0.014 -7.488,2.314 -0.829,1.066 -1.608,2.442 -2.876,2.607 -0.992,0.129 -1.946,-0.604 -2.441,-1.552 -0.494,-0.948 -0.615,-2.073 -0.669,-3.165 -0.195,-3.977 0.4,-8.069 2.142,-11.573 3.779,-7.6 10.894,-8.453 18.03,-8.195 2.82,0.101 5.641,0.203 8.461,0.305 5.157,0.186 10.606,0.469 14.909,3.571 3.796,2.735 6.011,7.336 6.879,12.137 0.448,2.478 0.558,5.032 0.374,7.552"
       style="fill:#292949;fill-opacity:1;fill-rule:nonzero;stroke:none;stroke-width:0.1"
       id="path78" /><path
       d="m 801.433,557.188 c 0.473,1.871 0.815,3.776 1.023,5.696 -1.737,-0.644 -3.636,-0.832 -5.465,-0.542 -0.02,1.106 -0.039,2.212 -0.059,3.318 -0.02,0.92 -12.271,1.417 -13.267,1.488 -9.323,0.664 -17.849,1.3 -26.199,-3.883 -7.134,-4.428 -11.656,-10.966 -12.643,-19.417 -0.943,-8.074 1.796,-18.571 6.473,-25.206 -0.056,2.146 -1.34,7.193 -0.87,9.239 0.277,2.047 0.944,4.027 1.877,5.858 1.863,3.656 4.784,6.749 8.178,8.972 5.41,3.544 11.73,5.46 18.056,6.434 5.795,0.892 12.861,1.737 18.619,0.241 2.768,-0.718 3.236,-1.416 4.867,1.435 0.287,0.502 2.541,6.357 2.313,6.358 -0.968,0.003 -1.935,0.006 -2.903,0.009"
       style="fill:#292949;fill-opacity:1;fill-rule:nonzero;stroke:none;stroke-width:0.1"
       id="path80" /><path
       d="m 677.446,353.019 0.103,-9.522 6.122,-5.68 -0.572,-1.923 -2.395,0.566 3.702,-6.185 -0.934,-5.827 -7.043,-3.603 -7.966,1.481 -2.739,7.284 1.56,9.194 -0.707,13.019 10.869,1.196"
       style="fill:#bf7d6d;fill-opacity:1;fill-rule:nonzero;stroke:none;stroke-width:0.1"
       id="path82" /><path
       d="m 681.779,347.856 18.689,53.951 35.478,13.95 7.112,67.926 -46.646,-40.79 -36.609,-42.516 3.537,-59.646 18.439,7.125"
       style="fill:#5d66d3;fill-opacity:1;fill-rule:nonzero;stroke:none;stroke-width:0.1"
       id="path84" /><path
       d="m 930.447,498.416 c 0.202,-0.275 0.408,-0.56 0.519,-0.871 1.039,-2.894 -0.152,-5.025 0.053,-8.083 0.092,-1.365 3.166,-3.071 0.88,-4.78 -0.844,-0.63 -3.132,-1.886 -4.944,-3.213 -2.642,-1.936 -4.822,-5.987 -5.958,-9.523 -4.466,-13.892 -5.026,-28.615 -5.124,-43.195 -0.006,-0.831 10e-4,-1.699 0.38,-2.439 0.677,-1.325 2.283,-1.822 3.717,-2.219 6.651,-1.844 13.131,-4.308 19.327,-7.349 5.528,-2.713 10.959,-5.995 14.777,-10.827 3.819,-4.831 5.786,-11.489 3.75,-17.301 -1.524,-4.353 -5.27,-7.86 -9.713,-9.095 -11.02,-3.064 -21.386,10.041 -28.806,16.447 -7.021,6.06 -13.617,12.612 -19.722,19.595 -0.753,0.862 -1.518,1.762 -1.872,2.851 -0.377,1.16 -0.251,2.417 -0.117,3.63 1.72,15.621 4.809,31.002 8.226,46.4 0.939,4.231 3.983,7.431 4.816,11.352 0.532,2.502 -0.85,4.847 -0.871,7.319 -0.021,2.445 0.575,5.661 1.457,7.939 1.74,4.494 6.544,5.793 10.63,7.342 1.017,0.386 1.703,0.649 2.715,0.523 1.645,-0.205 2.794,-1.332 3.973,-2.41 0.698,-0.638 1.349,-1.335 1.907,-2.093"
       style="fill:#d39689;fill-opacity:1;fill-rule:nonzero;stroke:none;stroke-width:0.1"
       id="path86" /><path
       d="m 916.37,387.711 c -7.498,6.505 -13.945,14.278 -19.486,22.359 -1.336,1.948 -2.624,4.017 -3.028,6.345 -0.336,1.929 -0.041,3.904 0.254,5.84 1.715,11.264 3.431,22.528 5.146,33.793 0.245,1.607 0.709,3.497 2.233,4.062 0.919,0.341 1.94,0.065 2.881,-0.213 20.195,-5.965 9.619,-6.928 15.899,-21.734 5.866,-13.829 15.712,-11.001 25.282,-3.671 6.265,4.799 14.62,5.592 22.489,6.207 2.278,0.178 4.714,0.323 6.7,-0.809 2.028,-1.155 3.149,-3.396 4.076,-5.538 7.801,-18.021 10.035,-38.406 6.322,-57.689 -0.308,-1.597 -0.717,-3.298 -1.927,-4.384 -1.213,-1.09 -2.951,-1.313 -4.574,-1.47 -13.194,-1.275 -26.845,-1.407 -39.311,3.099 -8.579,3.102 -16.195,7.937 -22.956,13.803"
       style="fill:#353a85;fill-opacity:1;fill-rule:nonzero;stroke:none;stroke-width:0.1"
       id="path88" /><path
       d="m 1024.27,99.798 5.56,-22.5398 -13.35,-3.2863 -6.17,24.989 13.96,0.8371"
       style="fill:#d39689;fill-opacity:1;fill-rule:nonzero;stroke:none;stroke-width:0.1"
       id="path90" /><path
       d="m 1016.85,77.791 12.54,-1.15 4.35,-2.9351 1.46,-9 -30.93,-9.752 c -3.57,3.259 -3.05,8.918 1.04,11.4731 l 1.34,0.8429 10.2,10.5211"
       style="fill:#292949;fill-opacity:1;fill-rule:nonzero;stroke:none;stroke-width:0.1"
       id="path92" /><path
       d="m 1113.04,200.344 c 5.52,2.491 10.7,6.82 16.32,8.764 0.76,-4.457 1.66,-8.885 2.5,-13.327 -6.63,-4.001 -13.54,-7.347 -21,-9.513 0.73,4.666 1.81,9.367 2.18,14.076"
       style="fill:#d39689;fill-opacity:1;fill-rule:nonzero;stroke:none;stroke-width:0.1"
       id="path94" /><path
       d="m 1132.23,196.075 c -0.46,0.529 -0.51,0.541 -0.99,1.835 -1.18,3.206 -4.34,12.105 -1.52,15.227 0.46,0.507 0.74,0.083 1.21,-0.084 7.96,-2.811 13.87,-6.389 20.54,-11.864 2.86,-2.343 5.69,-5.36 6.26,-9.141 0.25,-1.659 -0.3,-3.023 -0.79,-4.413 -0.73,-2.049 -1.64,-3.868 -2.69,-5.68 -0.39,-0.662 -0.69,-1.386 -1.57,-1.419 -1.77,-0.065 -2.83,1.863 -3.34,3.483 -0.52,1.621 -0.86,3.622 -2.11,4.901 -0.56,0.573 -1.32,0.882 -1.96,1.163 -4.7,2.086 -9.41,1.847 -13.04,5.992"
       style="fill:#292949;fill-opacity:1;fill-rule:nonzero;stroke:none;stroke-width:0.1"
       id="path96" /><path
       d="m 1013.2,202.118 c 13.11,-18.495 30.27,-25.364 50.48,-29.4 23.13,-4.619 42.03,1.191 60.83,14.43 -0.35,6.697 -1.68,13.253 -1.83,19.558 -21.83,-5.833 -32.64,-6.172 -49.68,12.098 -24.65,26.406 -7.54,70.843 -17.08,104.849 -1.1,3.908 -2.6,7.758 -4.98,11.041 -27.75,38.155 -67.248,6.61 -68.601,-31.116 -1.211,-33.759 11.315,-73.875 30.861,-101.46"
       style="fill:#474ebb;fill-opacity:1;fill-rule:nonzero;stroke:none;stroke-width:0.1"
       id="path98" /><path
       d="m 1041.8,325.382 c -2.79,12.206 -7.01,23.618 -11.37,32.054 -19.05,-3.353 -39.826,-10.364 -57.558,-18.453 -17.331,-7.906 -27.755,-14.493 -23.315,-34.244 8.171,-36.344 1.154,-70.542 3.115,-106.841 1.14,-21.095 11.493,-37.8 22.658,-54.993 12.777,-19.674 24.494,-40.036 35.08,-60.9691 6.3,1.4981 12.59,2.9973 18.88,4.4954 -0.27,29.4257 -9.57,57.8987 -15.69,86.6827 -4.25,20.003 -6.93,40.86 -3.95,61.243 3.29,22.406 16.77,16.918 27.31,31.912 10.24,14.579 9.66,38.03 4.84,59.113"
       style="fill:#474ebb;fill-opacity:1;fill-rule:nonzero;stroke:none;stroke-width:0.1"
       id="path100" /><path
       d="m 1001.35,465.055 c 2.36,-1.314 4.51,-3.003 6.64,-4.677 1.91,-1.5 3.81,-3 5.72,-4.5 6.6,-5.196 10.77,-13.741 14.39,-21.113 19.01,-38.795 32.12,-93.992 30.27,-137.831 -31.15,-7.527 -68.9,-5.124 -101.053,-5.61 -3.127,-0.047 -6.7,0.111 -8.693,2.521 -1.208,1.46 -1.537,3.435 -1.821,5.309 -4.106,27.026 -2.811,56.941 -1.506,84.399 0.551,11.587 1.641,23.158 3.555,34.603 2.026,12.114 4.394,25.223 11.914,35.298 8.047,10.781 25.472,18.15 38.432,12.66 0.74,-0.313 1.452,-0.67 2.152,-1.059"
       style="fill:#353a85;fill-opacity:1;fill-rule:nonzero;stroke:none;stroke-width:0.1"
       id="path102" /><path
       d="m 998.774,458.852 c 0.012,3.762 0.023,7.525 0.035,11.287 0.711,0.483 1.381,0.999 1.991,1.533 11.88,10.408 27.11,58.903 -9.526,63.671 -33.261,4.328 -24.938,-39.256 -15.94,-56.589 1.54,-2.967 3.411,-5.705 5.908,-7.948 1.707,-1.533 1.981,-1.151 2.082,-3.214 0.099,-1.997 -1.521,-4.519 -1.651,-6.661 -0.139,-2.284 0.412,-4.707 1.98,-6.373 0.96,-1.021 2.238,-1.697 3.561,-2.159 2.104,-0.735 4.452,-0.96 6.554,-0.221 2.498,0.88 4.998,3.979 5.006,6.674"
       style="fill:#fee7de;fill-opacity:1;fill-rule:nonzero;stroke:none;stroke-width:0.1"
       id="path104" /><path
       d="m 965.332,494.175 c 2.838,-5.534 6.416,-10.688 10.609,-15.282 -1.824,10.762 -2.16,21.773 -0.998,32.626 0.089,0.827 0.157,1.76 -0.382,2.395 -0.502,0.593 -1.359,0.713 -2.135,0.761 -13.861,0.86 -12.04,-10.852 -7.094,-20.5"
       style="fill:#66574d;fill-opacity:1;fill-rule:nonzero;stroke:none;stroke-width:0.1"
       id="path106" /><path
       d="m 1003.06,483.279 c 2.62,-2.701 7.21,-1.169 10.27,1.005 12.6,8.93 18.12,26.657 12.82,41.16 -4.44,12.135 -21.65,19.125 -22.48,3.127 -0.3,-5.672 4.21,-12.784 4.37,-19.002 0.23,-8.887 -2.56,-17.844 -4.98,-26.29"
       style="fill:#736357;fill-opacity:1;fill-rule:nonzero;stroke:none;stroke-width:0.1"
       id="path108" /><path
       d="m 958.193,542.077 c -1.436,-0.837 -2.895,-1.71 -4.435,-2.6 -3.191,-1.842 -5.58,-2.663 -9.379,-1.208 -1.086,0.417 -8.751,5.733 -7.338,7.293 -9.363,-10.345 1.364,-21.738 6.743,-30.138 3.625,-5.663 5.485,-14.152 12.162,-17.197 7.344,-3.35 11.088,2.867 16.777,6.263 5.018,2.996 10.622,5.056 15.771,7.826 8.543,4.596 21.126,12.301 16.306,23.847 -5.625,13.486 -20.357,14.821 -32.952,11.809 -5.381,-1.286 -9.422,-3.43 -13.655,-5.895"
       style="fill:#736357;fill-opacity:1;fill-rule:nonzero;stroke:none;stroke-width:0.1"
       id="path110" /><path
       d="m 1106.91,466.512 c -0.34,-0.011 -0.69,-0.025 -1,-0.129 -2.92,-0.973 -3.86,-3.227 -6.39,-4.955 -1.13,-0.77 -4.37,0.592 -4.3,-2.262 0.02,-1.053 0.45,-3.627 0.53,-5.872 0.11,-3.274 -1.73,-7.491 -3.81,-10.569 -3.93,-5.826 -21,-17.058 -17.5,-25.402 8.23,-19.606 27.59,19.132 30.08,22.107 1.64,1.964 4.33,2.326 6.29,3.837 1.93,1.495 4.09,3.952 5.34,6.053 2.46,4.144 0.51,8.725 -0.8,12.894 -0.32,1.038 -0.54,1.74 -1.26,2.458 -1.18,1.167 -2.78,1.373 -4.35,1.634 -0.94,0.155 -1.89,0.236 -2.83,0.206"
       style="fill:#d39689;fill-opacity:1;fill-rule:nonzero;stroke:none;stroke-width:0.1"
       id="path112" /><path
       d="m 1047.04,375.427 c 18.37,11.824 36.3,25.219 51.57,40.529 -4.74,5.103 -10.76,13.733 -19,12.113 -12.4,-2.442 -18.91,-16.868 -33.88,-10.936 -13.15,5.206 -17.22,23.03 -29.87,29.348 -1.3,0.651 -2.77,1.172 -4.19,0.841 -1,-0.234 -1.86,-0.87 -2.63,-1.545 -22.503,-15.967 2.14,-53.457 8.97,-70.308 1.77,-4.366 4.32,-9.369 8.98,-10.022 3,-0.42 5.88,1.177 8.47,2.746 3.86,2.345 7.73,4.755 11.58,7.234"
       style="fill:#353a85;fill-opacity:1;fill-rule:nonzero;stroke:none;stroke-width:0.1"
       id="path114" /><path
       d="m 556.863,461.545 c -2.641,-4.795 -6.66,-8.655 -10.028,-12.97 -3.278,-4.198 -4.635,-8.115 -5.799,-13.179 -0.841,-3.657 -2.378,-6.45 -6.881,-6.752 -8.494,-0.568 -5.573,6.198 -7.106,11.391 -1.752,5.937 -6.065,10.846 -8.932,16.242 -8.287,15.593 -3.412,44.829 16.587,49.655 21.867,5.276 30.173,-29.838 22.159,-44.387"
       style="fill:#d39689;fill-opacity:1;fill-rule:nonzero;stroke:none;stroke-width:0.1"
       id="path116" /><path
       d="m 523.896,478.493 c -2.432,0.083 -5.113,0.09 -7.032,-1.405 -1.92,-1.494 -1.989,-5.06 0.356,-5.62 2.126,-0.509 5.079,1.529 6.271,-0.208 0.697,-1.015 -0.082,-2.366 -0.748,-3.443 -2.557,-4.132 -3.598,-9.066 -2.896,-13.724 -0.946,-0.754 -2.264,0.2 -2.978,1.112 -3.545,4.529 -6.192,9.707 -7.769,15.199 -0.872,-1.236 -2.092,-2.252 -3.489,-2.908 0.954,1.95 0.609,4.186 0.265,6.273 -1.264,7.67 -1.848,16.588 3.872,22.352 3.06,3.084 7.482,4.66 11.846,5.136 4.364,0.475 8.737,-0.045 13.06,-0.564 1.85,-0.223 4.107,-0.793 4.425,-2.544 -4.193,-1.329 -8.641,-4.195 -10.967,-7.897 -0.713,-1.137 -3.969,-11.767 -4.216,-11.759"
       style="fill:#292949;fill-opacity:1;fill-rule:nonzero;stroke:none;stroke-width:0.1"
       id="path118" /><path
       d="m 533.847,495.952 c -0.156,-0.096 -0.31,-0.194 -0.461,-0.292 -1.95,-1.267 -3.807,-2.846 -6.087,-3.303 -3.286,-0.658 -6.628,1.151 -9.878,0.291 -3.633,-0.962 -6.277,-5.023 -9.05,-7.338 -4.546,-3.795 -10.028,-6.425 -15.799,-7.722 -2.948,-0.662 -5.974,-0.979 -8.995,-0.925 -1.37,0.025 -3.213,-0.098 -4.517,0.359 -1.748,0.614 -1.626,1.421 0.32,1.888 6.105,1.466 8.598,9.701 8.561,15.286 -0.029,4.408 -1.199,9.1 0.775,13.042 1.508,3.01 4.369,4.41 7.151,5.989 3.069,1.742 6.198,0.978 9.587,1.673 3.535,0.725 6.558,3.241 10.141,3.673 3.784,0.457 7.389,-1.474 11.066,-2.477 3.038,-0.829 6.246,-1.028 9.364,-0.582 2.793,0.4 5.558,1.312 8.37,1.077 4.147,-0.348 7.771,-3.222 9.941,-6.773 3.07,-5.022 4.677,-13.345 3.002,-19.531 0.26,0.96 -2.755,4.733 -3.373,5.542 -1.304,1.708 -2.91,3.338 -5.063,3.759 -4.875,0.952 -10.887,-1.059 -15.055,-3.636"
       style="fill:#292949;fill-opacity:1;fill-rule:nonzero;stroke:none;stroke-width:0.1"
       id="path120" /><path
       d="m 360.182,106.539 c 1.091,-3.031 2.908,-5.637 4.349,-8.466 29.724,10.09 59.147,25.007 87.929,37.862 -3.381,7.322 -6.762,14.643 -10.142,21.965 -13.561,-11.442 -28.211,-21.591 -43.681,-30.277 -2.452,-1.377 -38.611,-20.652 -38.455,-21.084"
       style="fill:#d39689;fill-opacity:1;fill-rule:nonzero;stroke:none;stroke-width:0.1"
       id="path122" /><path
       d="m 370.541,99.4191 c 1.065,-1.716 0.677,-3.132 0.043,-4.8121 -0.368,-0.975 -1.099,-1.83 -1.223,-2.8781 -0.124,-1.0488 0.122,-1.9309 0.427,-2.9969 1.609,-5.6129 6.789,-17.9558 -4.876,-14.93 -10.594,2.748 -13.699,20.023 -15.15,30.139 -0.096,0.665 -0.26,1.342 0.032,1.974 0.293,0.632 0.843,1.199 1.46,1.664 3.437,2.591 7.679,5.95 11.185,1.852 1.496,-1.748 0.899,-4.145 2.495,-5.991 1.307,-1.512 4.542,-2.306 5.607,-4.0209"
       style="fill:#292949;fill-opacity:1;fill-rule:nonzero;stroke:none;stroke-width:0.1"
       id="path124" /><path
       d="m 463.535,260.802 c -2.084,-7.143 -0.294,-13.234 1.033,-22.104 1.164,-7.778 1.641,-15.659 1.425,-23.52 -0.186,-6.744 -0.913,-13.598 -3.588,-19.792 -4.33,-10.028 -12.843,-15.166 -19.875,-22.879 -5.875,-6.445 -11.762,-12.181 -18.753,-17.646 -14.953,-11.689 -30.855,-22.068 -46.38,-32.964 4.431,-8.181 6.944,-10.869 11.376,-19.05 0.781,-1.441 27.091,4.073 28.8,4.416 5.778,1.161 11.443,2.888 16.888,5.144 10.448,4.328 20.704,10.393 30.588,15.812 22.784,12.491 42.28,30.958 55.874,53.111 8.822,14.376 15.145,30.116 21.425,45.77 3.104,7.737 7.04,15.563 9.206,23.616 1.416,5.267 4.897,12.428 3.31,17.828 -1.373,4.975 -4.739,8.189 -9.353,11.325 -12.344,8.391 -28.238,22.486 -44.209,18.702 -8.496,-2.013 -12,-7.159 -18.057,-12.483 -6.462,-5.682 -12.301,-11.032 -16.726,-18.564 -1.409,-2.399 -2.366,-4.607 -2.984,-6.722"
       style="fill:#292949;fill-opacity:1;fill-rule:nonzero;stroke:none;stroke-width:0.1"
       id="path126" /><path
       d="m 598.951,66.1352 c 2.659,-5.9711 6.182,-0.4364 9.135,-2.5403 9.096,35.6211 9.136,60.1061 1.812,96.0091 -7.674,-1.719 -15.271,-3.741 -22.926,-5.462 7.851,-16.608 12.224,-28.335 14.388,-48.713 0.343,-3.231 -2.788,-38.4438 -2.409,-39.2938"
       style="fill:#d39689;fill-opacity:1;fill-rule:nonzero;stroke:none;stroke-width:0.1"
       id="path128" /><path
       d="m 610.244,69.609 c 2.017,0.1629 2.758,-0.9289 3.737,-2.3508 0.569,-0.8269 0.747,-1.9141 1.469,-2.6312 0.722,-0.718 1.668,-0.9571 2.686,-1.2321 5.356,-1.45 18.501,-3.498 10.128,-11.5508 -7.603,-7.314 -23.53,-1.7722 -32.648,2.225 -0.599,0.2618 -1.34,0.4399 -1.721,1.027 -0.382,0.5879 -0.611,1.2508 -0.655,2.041 -0.245,4.3949 -0.614,8.8371 4.431,10.2059 2.152,0.584 3.956,-1.2309 6.3,-0.6391 1.92,0.4852 4.255,2.743 6.273,2.9051"
       style="fill:#292949;fill-opacity:1;fill-rule:nonzero;stroke:none;stroke-width:0.1"
       id="path130" /><path
       d="m 538.878,214.737 c 10.052,-7.509 20.104,-15.018 30.157,-22.527 3.311,-2.473 6.691,-5.018 8.964,-8.47 2.066,-3.138 3.087,-6.83 4.04,-10.464 5.242,-19.98 9.337,-40.262 12.26,-60.71 0.717,-5.008 1.362,-10.026 1.938,-15.0519 0.493,-4.311 -1.445,-9.6911 1.969,-12.3301 3.931,-3.0379 16.67,-2.6879 21.711,-3.5027 2.272,27.2727 4.544,54.5467 6.815,81.8197 0.405,4.865 0.807,9.8 -0.095,14.598 -0.823,4.38 -2.704,8.48 -4.568,12.529 -17.87,38.82 -39.141,74.447 -65.09,108.533 -1.09,1.432 -2.228,2.897 -3.788,3.794 -2.172,1.25 -4.822,1.219 -7.327,1.153 -9.52,-0.251 -24.176,2.159 -32.844,-1.901 -11.145,-5.223 -19.825,-12.623 -27.177,-22.503 -4.9,-6.586 -1.786,-19.088 2.72,-25.424 2.944,-4.14 7.082,-7.249 11.151,-10.288 13.054,-9.752 26.109,-19.503 39.164,-29.255"
       style="fill:#292949;fill-opacity:1;fill-rule:nonzero;stroke:none;stroke-width:0.1"
       id="path132" /><path
       d="m 498.253,425.226 c -3.283,-2.312 -6.299,-4.918 -8.896,-7.726 -8.708,-9.415 -15.657,-20.472 -20.657,-32.267 -11.457,-27.025 -13.659,-56.696 -15.724,-85.778 -0.688,-9.679 -1.374,-19.359 -2.062,-29.038 -0.677,-9.523 -0.003,-11.639 10.081,-11.196 18.686,0.821 38.215,3.209 55.583,10.37 8.264,3.407 16.078,7.924 24.671,10.437 12.499,3.656 24.847,0.537 37.106,2.58 -2.407,9.818 -6.384,18.928 -7.827,29.14 -1.445,10.222 -1.752,20.575 -1.724,30.89 0.039,14.497 -0.574,28.981 -0.846,43.472 -0.211,11.263 -0.167,24.484 -7.091,34.044 -2.322,3.207 -5.578,6.135 -9.247,7.71 -2.696,1.157 -7.581,1.903 -9.171,4.73 -0.145,0.258 -0.155,0.569 -0.161,0.866 -0.073,3.591 1.052,6.846 -2.447,8.13 -1.95,0.715 -4.732,0.641 -6.79,0.768 -2.909,0.178 -10.239,0.882 -11.074,-3.202 -0.221,-1.082 -0.196,-2.222 -0.599,-3.25 -0.1,-0.255 -0.232,-0.507 -0.442,-0.685 -0.27,-0.228 -0.633,-0.303 -0.979,-0.374 -7.493,-1.543 -15.133,-4.993 -21.704,-9.621"
       style="fill:#353a85;fill-opacity:1;fill-rule:nonzero;stroke:none;stroke-width:0.1"
       id="path134" /><path
       d="m 653.064,508.018 c -0.32,-0.004 -0.638,-0.032 -0.954,-0.092 -2.946,-0.561 -3.804,-3.431 -6.185,-4.627 -1.062,-0.534 -4.521,0.282 -4.33,-1.679 0.076,-0.723 0.125,-3.181 0.327,-5.643 0.296,-3.59 -2.052,-6.63 -3.88,-9.435 -2.456,-3.77 -4.912,-7.54 -7.368,-11.31 -2.138,-3.281 -4.288,-6.577 -6.932,-9.464 -6.382,-6.966 -14.62,-10.376 -22.716,-14.594 -8.586,-4.473 -17.674,-8.994 -25.548,-14.649 -2.785,-2 -5.484,-4.321 -6.977,-7.407 -3.741,-7.733 2.36,-12.895 9.9,-11.941 3.165,0.401 6.176,1.582 9.098,2.864 7.877,3.454 15.399,7.718 22.409,12.701 3.267,2.323 6.422,4.801 9.576,7.277 8.13,6.385 14.528,13.145 20.462,21.599 2.442,4.189 4.416,8.621 6.487,12.998 1.264,2.673 2.916,9.229 6.352,9.589 0.564,0.059 1.142,-0.007 1.693,0.129 0.621,0.152 1.151,0.546 1.651,0.945 1.831,1.462 3.591,3.108 5.037,4.962 2.583,3.316 0.528,9.575 -0.369,13.162 -0.223,0.893 -0.484,1.81 -1.072,2.518 -0.958,1.151 -2.551,1.499 -4.021,1.779 -0.871,0.165 -1.76,0.331 -2.64,0.318"
       style="fill:#d39689;fill-opacity:1;fill-rule:nonzero;stroke:none;stroke-width:0.1"
       id="path136" /><path
       d="m 597.853,416.652 c 2.517,1.452 4.995,2.969 7.396,4.607 8.922,6.085 16.711,13.824 22.854,22.707 -2.691,6.276 -5.945,12.31 -9.708,18.008 -24.466,-10.606 -49.198,-15.883 -74.744,-22.688 -8.987,-2.394 -18.281,-4.942 -25.447,-10.871 -13.207,-10.927 -9.117,-33.269 8.126,-37.132 20.864,-4.674 45.454,11.208 63.07,20.707 2.832,1.526 5.666,3.055 8.453,4.662"
       style="fill:#353a85;fill-opacity:1;fill-rule:nonzero;stroke:none;stroke-width:0.1"
       id="path138" /><path
       d="m 1022.79,438.585 c -0.24,-0.099 -0.49,-0.216 -0.74,-0.292 -13.17,-3.941 -27.49,-6.639 -41.424,-8.825 -9.831,-1.537 -19.846,-3.032 -29.844,-3.284 -15.649,-0.393 -23.921,6.471 -27.339,20.621 -4.184,17.307 -0.56,35.744 0.939,53.118 0.283,3.257 0.623,31.215 3.567,31.839 -9.611,-2.033 -14.537,8.069 -24.261,6.724 -1.875,-0.257 -3.848,-0.613 -5.895,-0.994 -0.465,3.989 -2.118,7.905 -5.006,11.233 -8.247,9.945 -21.739,22.391 -16.947,35.973 2.308,1.943 4.63,3.838 6.841,5.767 7.928,6.933 14.48,15.324 19.56,24.532 1.698,3.082 3.563,5.843 5.442,8.266 5.366,6.935 10.827,11.176 12.852,12.633 -0.243,-2.37 0.196,-4.719 1.623,-6.728 3.091,-4.343 9.699,-5.792 14.433,-3.745 0.239,0.106 0.463,0.215 0.692,0.334 1.978,1.055 1.095,1.844 -0.349,2.411 -1.541,0.609 -3.309,1.27 -3.838,3.028 -1.379,4.598 10.945,5.726 13.191,6.051 22.111,3.201 38.012,-25.207 43.481,-30.962 0,0 -1.67,-10.252 2.069,-14.296 0.796,-0.866 1.3,-1.667 1.598,-2.408 -0.823,-1.29 -1.501,-2.841 -1.966,-4.694 l -0.006,-0.007 c -7.667,-2.204 0.448,-11.477 -4.41,-15.736 -1.866,-1.632 -4.386,-2.208 -6.347,-3.719 -0.368,-0.287 -0.732,-0.6 -0.902,-1.034 -0.288,-0.691 0.022,-1.514 0.551,-2.051 2.168,-2.205 5.429,-2.318 8.574,-1.623 0.652,-10.064 3.908,-20.323 12.351,-28.032 -0.87,-7.935 -3.072,-20.128 -12.341,-22.182 -1.34,-0.293 -2.72,-0.513 -3.924,-1.16 -6.012,-3.255 1.141,-11.199 5.106,-12.12 5.935,-1.378 12.619,0.135 19.009,1.06 v 10e-4 c 1.44,0.207 2.19,-1.851 -1.27,-4.955 -9.168,-8.241 -19.14,-20.192 -16.134,-33.648 2.21,-9.909 10.114,-16.231 19.174,-19.224 3.8,-1.255 7.8,-1.647 11.89,-1.872"
       style="fill:#ffffff;fill-opacity:1;fill-rule:nonzero;stroke:none;stroke-width:0.1"
       id="path140" /><path
       d="m 895.387,550.2 c -8.567,10.331 -21.337,23.05 -16.36,37.162 -7.075,-5.939 -15.249,-12.058 -18.472,-20.862 -3.597,-9.824 -0.858,-21.62 8.407,-27.22 8.944,-5.406 21.233,-3.239 31.708,-1.268 -0.48,4.146 -2.28,8.73 -5.283,12.188"
       style="fill:#babcbe;fill-opacity:1;fill-rule:nonzero;stroke:none;stroke-width:0.1"
       id="path142" /><path
       d="m 864.91,559.504 c -0.293,2.024 1.11,3.902 3.134,4.195 2.024,0.293 3.902,-1.11 4.195,-3.134 0.293,-2.024 -1.11,-3.902 -3.134,-4.195 -2.024,-0.293 -3.902,1.11 -4.195,3.134"
       style="fill:#3b3f54;fill-opacity:1;fill-rule:nonzero;stroke:none;stroke-width:0.1"
       id="path144" /><path
       d="m 922.059,657.098 c -5.353,-8.135 -11.788,-15.485 -19.073,-21.814 2.755,-7.18 4.697,-12.021 4.697,-12.021 5.366,6.936 10.827,11.176 12.852,12.633 0.437,4.289 3.1,8.654 6.137,11.21 0.629,0.529 1.293,1.012 1.998,1.453 -1.874,2.448 -4.129,5.368 -6.611,8.539"
       style="fill:#3b3387;fill-opacity:1;fill-rule:nonzero;stroke:none;stroke-width:0.1"
       id="path146" /><path
       d="m 897.214,686.875 c -5.49,5.875 -9.904,9.751 -11.664,9.305 -2.131,-0.542 -0.45,-8.654 2.76,-19.282 3.295,2.9 6.292,6.189 8.904,9.977"
       style="fill:#babcbe;fill-opacity:1;fill-rule:nonzero;stroke:none;stroke-width:0.1"
       id="path148" /><path
       d="m 897.214,686.875 c -2.612,-3.788 -5.609,-7.077 -8.904,-9.977 1.3,-4.305 2.849,-9.022 4.5,-13.819 4.799,4.049 8.981,8.92 12.322,14.868 -2.762,3.24 -5.448,6.286 -7.918,8.928"
       style="fill:#8cabef;fill-opacity:1;fill-rule:nonzero;stroke:none;stroke-width:0.1"
       id="path150" /><path
       d="m 905.132,677.947 c -3.341,-5.948 -7.523,-10.819 -12.322,-14.868 1.572,-4.569 3.234,-9.208 4.855,-13.628 6.273,4.964 11.904,10.744 16.663,17.38 -3.028,3.752 -6.157,7.551 -9.196,11.116"
       style="fill:#5d66d3;fill-opacity:1;fill-rule:nonzero;stroke:none;stroke-width:0.1"
       id="path152" /><path
       d="m 914.328,666.831 c -4.759,-6.636 -10.39,-12.416 -16.663,-17.38 1.9,-5.179 3.744,-10.057 5.321,-14.167 7.285,6.329 13.72,13.679 19.073,21.814 -2.406,3.074 -5.029,6.385 -7.731,9.733"
       style="fill:#474ebb;fill-opacity:1;fill-rule:nonzero;stroke:none;stroke-width:0.1"
       id="path154" /><path
       d="m 1058.69,563.461 c -0.19,0.758 -0.74,1.476 -1.5,1.648 -0.88,0.197 -1.73,-0.34 -2.46,-0.85 -3.52,-2.446 -7.43,-6.637 -12.08,-4.828 -5.05,1.966 -7.46,8.461 -8.24,13.375 -1.44,9.114 -0.28,16.245 -5.21,24.167 -2.06,3.306 -7.4,8.36 -13.1,7.821 3.93,0.402 -0.02,19.432 -1.01,22.058 -3.89,10.266 -14.27,17.743 -23.607,22.626 -19.222,10.047 -44.119,10.768 -62.813,-0.919 -0.706,-0.441 -1.369,-0.925 -1.998,-1.453 -3.037,-2.556 -5.7,-6.921 -6.137,-11.21 -0.243,-2.37 0.196,-4.719 1.623,-6.728 3.091,-4.343 9.699,-5.791 14.433,-3.745 0.238,0.106 0.462,0.215 0.692,0.334 1.978,1.055 1.095,1.844 -0.349,2.411 -1.541,0.609 -3.309,1.271 -3.838,3.028 -1.379,4.598 10.945,5.726 13.191,6.051 16.821,2.435 30.046,-13.42 37.82,-23.681 2.627,-3.716 10.257,-16.826 3.59,-36.286 -2.219,-6.478 -6.566,-8.552 -8.849,-10.609 -0.428,-0.39 -0.85,-0.818 -1.038,-1.421 -0.321,-0.959 0.073,-2.122 0.719,-2.892 2.645,-3.159 6.525,-3.421 10.24,-2.546 l 0.238,0.063 c 0.809,-10.25 4.094,-20.655 12.153,-28.639 -0.96,-7.923 -3.377,-19.154 -12.168,-21.102 -1.34,-0.293 -2.666,-0.883 -3.87,-1.53 -6.012,-3.255 1.034,-10.46 4.999,-11.382 5.934,-1.377 12.619,0.136 19.009,1.062 0.32,0.046 0.63,0.125 0.94,0.219 -0.11,-1.021 -0.8,-2.243 -2.42,-3.697 -9.171,-8.241 -19.148,-21.079 -16.142,-34.534 2.211,-9.91 10.282,-16.453 19.332,-19.446 3.81,-1.254 7.86,-2.016 11.95,-2.241 8.98,-0.491 18.18,1.566 25.56,6.556 4.99,3.376 10.01,8.081 11.66,14.098 0.41,1.527 0.72,3.342 0.28,4.908 -0.54,1.911 -2.26,2.961 -3.49,0.575 -1.65,-3.21 -4.62,-5.008 -8.15,-5.731 -7.38,-1.499 -13.69,3.895 -11.36,11.682 0.5,1.71 1.44,3.256 2.4,4.757 3.43,5.372 8.34,10.075 11.15,15.787 2.57,5.219 3.99,11.264 3.29,17.004 -0.95,7.869 -5.5,17.11 -14.16,18.813 -0.14,0.028 -0.29,0.05 -0.43,0.071 1.69,5.601 1.92,11.73 1.18,17.514 6.4,-0.316 13.8,6.071 16.45,11.367 0.99,1.981 2.08,5.23 1.52,7.475"
       style="fill:#d67086;fill-opacity:1;fill-rule:nonzero;stroke:none;stroke-width:0.1"
       id="path156" /><path
       d="m 967.305,615.744 c -4.075,0.218 -12.5,8.178 -11.632,12.164 2.14,9.831 11.331,23.828 10.488,29.651 -1.179,8.144 13.702,6.066 13.205,-9.997 -0.496,-16.063 -0.381,-30.598 -7.236,-31.604 -1.714,-0.252 -3.344,-0.293 -4.825,-0.214"
       style="fill:#f7f7f7;fill-opacity:1;fill-rule:nonzero;stroke:none;stroke-width:0.1"
       id="path158" /><path
       d="m 924.883,588.35 c 0.472,-3.266 -1.792,-6.297 -5.058,-6.769 -3.265,-0.473 -6.296,1.791 -6.769,5.057 -0.473,3.266 1.791,6.297 5.057,6.769 3.266,0.474 6.297,-1.791 6.77,-5.057"
       style="fill:#3b3f54;fill-opacity:1;fill-rule:nonzero;stroke:none;stroke-width:0.1"
       id="path160" /><path
       d="m 972.13,615.958 c 6.855,1.007 6.74,15.541 7.236,31.604 0.205,6.628 -2.209,10.869 -5.032,12.999 0.017,-0.193 3.369,-38.093 -10.739,-43.352 l 1.46,-0.804 c 0.825,-0.388 1.594,-0.626 2.25,-0.661 1.481,-0.079 3.111,-0.038 4.825,0.214"
       style="fill:#dddae8;fill-opacity:1;fill-rule:nonzero;stroke:none;stroke-width:0.1"
       id="path162" /><path
       d="m 1106.05,552.883 20.84,-39.093 c 0.34,-0.643 0.98,-1.076 1.71,-1.159 l 44.13,-5.042 c 1.83,-0.209 2.62,-2.417 1.34,-3.737 l -30.86,-31.844 c -0.51,-0.524 -0.73,-1.264 -0.58,-1.978 l 8.81,-43.39 c 0.37,-1.797 -1.49,-3.233 -3.15,-2.429 l -39.91,19.411 c -0.66,0.32 -1.43,0.296 -2.07,-0.062 l -38.68,-21.775 c -1.6,-0.901 -3.55,0.419 -3.29,2.236 l 6.19,43.841 c 0.11,0.722 -0.15,1.446 -0.69,1.939 l -32.73,29.933 c -1.35,1.24 -0.69,3.491 1.12,3.81 l 43.75,7.685 c 0.72,0.126 1.33,0.597 1.63,1.26 l 18.46,40.274 c 0.76,1.668 3.12,1.739 3.98,0.12"
       style="fill:#8cabef;fill-opacity:1;fill-rule:nonzero;stroke:none;stroke-width:0.1"
       id="path164" /><path
       d="m 1104.33,543.656 -16.49,-34.331 c -0.87,-1.801 -2.59,-3.037 -4.58,-3.278 l -37.92,-4.603 40.23,-0.664 c 2.55,-0.042 4.84,1.569 5.66,3.983 l 13.1,38.893"
       style="fill:#b3caf2;fill-opacity:1;fill-rule:nonzero;stroke:none;stroke-width:0.1"
       id="path166" /><path
       d="m 1065.05,429.065 -0.71,-5.044 c -0.26,-1.817 1.69,-3.137 3.29,-2.236 l 38.68,21.775 c 0.64,0.358 1.41,0.382 2.07,0.062 l 39.91,-19.411 c 1.66,-0.804 3.52,0.632 3.15,2.429 l -8.81,43.391 c -0.15,0.713 0.07,1.453 0.58,1.977 l 30.86,31.844 c 1.28,1.32 0.49,3.528 -1.34,3.737 l -14.78,1.689 c -22.52,-43.293 -58.3,-66.805 -92.9,-80.213"
       style="fill:#7f9dd3;fill-opacity:1;fill-rule:nonzero;stroke:none;stroke-width:0.1"
       id="path168" /><path
       d="m 1064.49,416.263 v 0 h 0.01 z"
       style="fill:#c0deec;fill-opacity:1;fill-rule:nonzero;stroke:none;stroke-width:0.1"
       id="path170" /><path
       d="M 895.054,244.601 H 673.34 v 139.006 c 0,4.977 4.035,9.013 9.012,9.013 h 203.689 c 4.978,0 9.013,-4.036 9.013,-9.013 V 244.601"
       style="fill:#3b3387;fill-opacity:1;fill-rule:nonzero;stroke:none;stroke-width:0.1"
       id="path172" /><path
       d="M 682.178,252.772 H 886.274 V 382.366 H 682.178 Z"
       style="fill:#dddae8;fill-opacity:1;fill-rule:nonzero;stroke:none;stroke-width:0.1"
       id="path174" /><path
       d="m 895.034,225.474 -221.717,0.665 c -5.396,0.015 -10.395,2.84 -13.191,7.455 l 248.142,-0.739 -10e-4,-10e-4 c -2.822,-4.599 -7.837,-7.395 -13.233,-7.38"
       style="fill:#cacbcc;fill-opacity:1;fill-rule:nonzero;stroke:none;stroke-width:0.1"
       id="path176" /><path
       d="M 905.318,231.618 H 663.076 c -1.808,0 -3.273,1.465 -3.273,3.273 v 6.801 c 0,1.808 1.465,3.273 3.273,3.273 h 242.242 c 1.807,0 3.272,-1.465 3.272,-3.273 v -6.801 c 0,-1.808 -1.465,-3.273 -3.272,-3.273"
       style="fill:#babcbe;fill-opacity:1;fill-rule:nonzero;stroke:none;stroke-width:0.1"
       id="path178" /><path
       d="m 802.48,236.321 h -36.566 c -1.236,0 -2.238,1.001 -2.238,2.237 v 0.247 c 0,1.235 1.002,2.237 2.238,2.237 h 36.566 c 1.235,0 2.237,-1.002 2.237,-2.237 v -0.247 c 0,-1.236 -1.002,-2.237 -2.237,-2.237"
       style="fill:#a0a2a3;fill-opacity:1;fill-rule:nonzero;stroke:none;stroke-width:0.1"
       id="path180" /><path
       d="m 682.828,266.604 h 201.669 l 1.128,60.208 -31.147,45.459 -29.721,-51.815 -35.2,28.441 -44.972,-43.139 -28.097,17.315 -33.66,-37.063 v -19.406"
       style="fill:#f2f2f2;fill-opacity:1;fill-rule:nonzero;stroke:none;stroke-width:0.1"
       id="path182" /><path
       d="m 817.518,266.604 v 0 l -27.961,82.293 35.2,-28.441 -7.239,-53.852"
       style="fill:#e9e9e9;fill-opacity:1;fill-rule:nonzero;stroke:none;stroke-width:0.1"
       id="path184" /><path
       d="m 150.146,521.735 c 0.211,-0.249 0.426,-0.508 0.553,-0.796 1.182,-2.691 0.188,-4.801 0.587,-7.703 0.178,-1.294 3.221,-2.717 1.155,-4.498 -0.763,-0.657 -2.86,-2.005 -4.5,-3.391 -2.39,-2.021 -4.199,-6.027 -5.048,-9.474 -3.335,-13.539 -2.892,-27.611 -2.018,-41.516 0.05,-0.793 0.114,-1.619 0.523,-2.3 0.734,-1.219 2.298,-1.585 3.692,-1.869 6.462,-1.317 12.803,-3.236 18.911,-5.723 5.45,-2.22 10.845,-4.988 14.806,-9.341 3.96,-4.352 6.277,-10.568 4.722,-16.244 -1.164,-4.25 -4.502,-7.842 -8.656,-9.315 -10.301,-3.651 -21.053,8.153 -28.551,13.767 -7.095,5.312 -13.818,11.12 -20.101,17.372 -0.775,0.772 -1.564,1.579 -1.974,2.594 -0.436,1.081 -0.399,2.287 -0.353,3.452 0.604,15.006 2.528,29.873 4.764,44.778 0.615,4.096 3.304,7.349 3.838,11.141 0.341,2.421 -1.133,4.564 -1.316,6.919 -0.183,2.33 0.173,5.435 0.862,7.666 1.361,4.399 5.854,5.957 9.646,7.704 0.944,0.435 1.581,0.732 2.554,0.679 1.582,-0.087 2.751,-1.085 3.947,-2.034 0.708,-0.562 1.375,-1.183 1.957,-1.868"
       style="fill:#d39689;fill-opacity:1;fill-rule:nonzero;stroke:none;stroke-width:0.1"
       id="path186" /><path
       d="m 143.97,416.458 c -2.245,2.139 -4.361,4.388 -6.326,6.743 -5.929,7.103 -11.859,14.207 -17.788,21.31 -0.53,0.635 -1.069,1.286 -1.358,2.061 -0.494,1.328 -0.183,2.803 0.116,4.187 2.301,10.644 3.615,21.5 3.921,32.384 6.712,-2.814 14.108,-3.984 21.361,-3.377 0.014,-7.296 0.029,-14.592 0.043,-21.888 0.002,-0.828 0.018,-1.706 0.463,-2.405 0.422,-0.661 1.157,-1.044 1.862,-1.387 17.098,-8.32 35.827,-11.655 53.948,-17.09 8.756,-2.629 17.809,-5.418 24.666,-11.464 14.643,-12.909 6.266,-37.202 -13.919,-36.57 -23.851,0.748 -49.401,10.736 -66.989,27.496"
       style="fill:#3b3387;fill-opacity:1;fill-rule:nonzero;stroke:none;stroke-width:0.1"
       id="path188" /><path
       d="m 215.272,90.9871 0.314,-22.1832 -15.381,-0.175 -0.348,24.593 15.415,-2.2348"
       style="fill:#d39689;fill-opacity:1;fill-rule:nonzero;stroke:none;stroke-width:0.1"
       id="path190" /><path
       d="m 201.374,72.1039 11.433,-3.7789 3.408,-3.6691 -0.577,-8.6938 -30.903,-2.4019 c -2.611,3.8019 -0.913,8.9589 3.444,10.455 l 1.438,0.4938 11.757,7.5949"
       style="fill:#292949;fill-opacity:1;fill-rule:nonzero;stroke:none;stroke-width:0.1"
       id="path192" /><path
       d="m 310.004,112.252 8.706,-20.4059 -12.096,-5.1492 -9.652,22.6231 13.042,2.932"
       style="fill:#d39689;fill-opacity:1;fill-rule:nonzero;stroke:none;stroke-width:0.1"
       id="path194" /><path
       d="m 304.604,86.3148 c 0.435,0.4793 0.939,0.9344 1.526,1.3633 1.454,1.0617 13.172,7.2719 14.178,4.4731 0.163,-0.4551 0.111,-0.9551 0.054,-1.4352 -0.965,-8.0531 -2.855,-15.9949 -5.62,-23.6199 -1.182,-3.2621 -2.977,-6.875 -6.35,-7.6879 -1.479,-0.3562 -3.031,-0.0941 -4.515,0.243 -2.188,0.4957 -4.341,1.1488 -6.436,1.9519 -0.766,0.2938 -1.58,0.6559 -1.977,1.3731 -0.795,1.4367 0.592,3.1386 2.04,3.9129 1.449,0.7738 3.218,1.33 3.925,2.8129 0.317,0.664 0.362,1.421 0.402,2.157 0.295,5.457 -0.631,10.6973 2.773,14.4558"
       style="fill:#292949;fill-opacity:1;fill-rule:nonzero;stroke:none;stroke-width:0.1"
       id="path196" /><path
       d="m 225.18,193.788 c 4.312,-19.721 16.641,-33.888 29.811,-48.39 15.07,-16.595 29.247,-34.002 42.447,-52.1199 5.705,2.3789 11.411,4.7578 17.117,7.1379 -4.77,27.712 -17.916,53.139 -28.102,79.349 -7.079,18.214 -12.814,37.474 -13.125,57.157 -0.155,9.789 2.217,18.741 3.487,28.262 1.573,11.793 1.663,23.881 3.085,35.729 0.476,3.973 0.747,8.672 -2.308,11.257 -1.36,1.15 -3.152,1.634 -4.901,1.973 -64.878,12.564 -55.712,-82.856 -47.511,-120.355"
       style="fill:#474ebb;fill-opacity:1;fill-rule:nonzero;stroke:none;stroke-width:0.1"
       id="path198" /><path
       d="m 278.033,297.202 c 0.035,11.965 -1.426,23.498 -3.664,32.293 -18.456,0.988 -39.312,-1.054 -57.564,-4.757 -17.84,-3.62 -28.966,-7.503 -29.094,-26.847 -0.237,-35.596 -14.15,-65.917 -20.157,-100.131 -3.491,-19.883 2.541,-37.668 9.225,-56.083 7.648,-21.071 14.161,-42.5551 19.501,-64.327 6.181,0.0371 12.363,0.0742 18.545,0.1109 6.1,27.4511 3.584,55.9641 4.102,84.0791 0.36,19.538 2.361,39.533 9.54,57.864 7.893,20.149 19.259,12.129 32.303,23.815 12.682,11.36 17.203,33.316 17.263,53.983"
       style="fill:#474ebb;fill-opacity:1;fill-rule:nonzero;stroke:none;stroke-width:0.1"
       id="path200" /><path
       d="m 257.076,434.189 c 2.038,-1.579 3.829,-3.484 5.599,-5.371 1.585,-1.691 3.17,-3.382 4.756,-5.073 5.492,-5.858 8.205,-14.529 10.559,-22.013 12.389,-39.382 16.847,-93.412 8.802,-134.562 -30.513,-2.636 -65.83,5.058 -96.275,9.216 -2.961,0.405 -6.314,1.068 -7.851,3.631 -0.931,1.553 -0.958,3.466 -0.958,5.277 0.004,26.123 5.524,54.198 10.702,79.951 2.185,10.867 4.877,21.642 8.329,32.179 3.654,11.154 7.775,23.198 16.327,31.636 9.15,9.029 26.671,13.488 38.126,6.44 0.654,-0.403 1.28,-0.842 1.884,-1.311"
       style="fill:#3b3387;fill-opacity:1;fill-rule:nonzero;stroke:none;stroke-width:0.1"
       id="path202" /><path
       d="m 245.255,436.107 c -0.183,-0.381 -0.433,-0.748 -0.77,-1.098 -1.332,-1.382 -3.205,-2.195 -5.076,-2.512 -2.466,-0.417 -4.993,-0.07 -7.462,0.335 -3.335,0.549 -3.267,2.494 -3.825,5.495 -0.305,1.64 -0.512,3.294 -0.678,4.953 -0.091,0.909 0.178,4.18 -0.419,4.803 -0.405,0.423 -2.006,0.236 -2.718,0.585 -1.129,0.553 -2.087,1.601 -2.783,2.625 -1.122,1.651 -1.766,3.572 -2.396,5.466 -1.097,3.295 -2.193,6.59 -3.29,9.885 -1.121,3.367 -2.247,6.762 -2.67,10.285 -0.637,5.31 0.032,12.847 3.95,16.842 3.575,3.644 8.89,5.024 13.778,5.776 6.472,0.996 13.234,-0.021 18.931,-3.324 2.3,-1.334 4.493,-3.084 5.894,-5.531 2.159,-3.774 2.124,-8.554 2.017,-13.025 -0.099,-4.128 -0.199,-8.255 -0.298,-12.382 -0.114,-4.747 -0.565,-10.225 -4.051,-12.887 -1.851,-1.413 -4.31,-1.768 -5.879,-3.559 -1.966,-2.245 -1.751,-5.531 -1.765,-8.313 -0.008,-1.591 0.15,-3.092 -0.49,-4.419"
       style="fill:#d39689;fill-opacity:1;fill-rule:nonzero;stroke:none;stroke-width:0.1"
       id="path204" /><path
       d="m 223.338,488.866 c -0.214,-0.392 -0.39,-0.798 -0.524,-1.218 -0.701,-2.205 -0.127,-4.659 -0.81,-6.869 -1.083,-3.504 -5.084,-5.696 -5.603,-9.327 -0.424,-2.97 1.668,-5.729 1.915,-8.718 0.27,-3.266 -1.745,-6.415 -1.338,-9.636 0.354,-2.797 2.234,-6.692 3.966,-8.897 -0.537,0.683 -5.225,0.315 -6.462,1.028 -1.895,1.092 -2.126,1.804 -2.731,3.735 -0.6,1.916 -0.222,3.83 -1.131,5.785 -1.116,2.4 -3.327,4.125 -4.152,6.693 -1.125,3.505 0.658,7.278 0.418,10.95 -0.364,5.559 -5.308,10.679 -3.697,16.012 0.944,3.128 3.906,5.189 5.529,8.025 1.232,2.155 1.643,4.667 2.476,7.004 0.833,2.338 2.309,4.693 4.67,5.456 1.312,0.424 2.738,0.301 4.086,0.587 2.332,0.496 4.236,2.162 6.474,2.983 3.2,1.175 8.979,-1.944 10.933,-4.632 1.94,-2.668 1.055,-5.001 -0.796,-7.451 -3.082,-4.081 -10.711,-6.895 -13.223,-11.51"
       style="fill:#292949;fill-opacity:1;fill-rule:nonzero;stroke:none;stroke-width:0.1"
       id="path206" /><path
       d="m 266.396,506.414 c 1.971,-1.37 4.385,-2.334 6.195,-3.947 3.527,-3.146 4.314,-8.302 4.559,-13.021 0.218,-4.203 2.154,-7.893 1.81,-12.287 -0.231,-2.952 -1.406,-5.961 -3.757,-7.76 -2.927,-2.24 -7.602,-2.715 -8.845,-6.186 -1.35,-3.77 2.638,-8.373 0.373,-11.676 -1.25,-1.822 -3.781,-2.149 -5.603,-3.399 -2.033,-1.394 -3.034,-3.816 -4.243,-5.965 -1.208,-2.148 -3.05,-4.317 -5.512,-4.433 -0.196,3.745 -0.383,6.711 1.131,10.179 0.881,2.02 3.532,5.774 1.368,7.882 -1.376,1.762 -4.53,2.267 -4.668,4.499 -0.065,1.047 0.644,1.96 1.2,2.851 2.148,3.449 2.26,7.976 0.648,11.707 -1.612,3.731 -4.812,6.662 -8.514,8.34 -4.339,1.966 -3.675,3.03 -5.025,7.102 -1.243,3.746 -3.408,4.577 -6.843,5.866 -3.084,1.158 -4.084,1.903 -5.283,4.731 -0.878,2.069 -1.957,4.546 -0.821,6.909 0.903,1.878 2.579,3.248 4.203,4.554 3.393,2.726 7.211,5.6 11.559,5.398 2.415,-0.112 4.712,-1.186 7.128,-1.262 1.612,-0.05 3.203,0.348 4.813,0.442 2.744,0.162 5.663,-0.599 7.928,-2.177 2.286,-1.592 2.267,-3.32 3.573,-5.629 0.64,-1.131 1.569,-1.983 2.626,-2.718"
       style="fill:#292949;fill-opacity:1;fill-rule:nonzero;stroke:none;stroke-width:0.1"
       id="path208" /><path
       d="m 256.284,521.573 c -0.489,2.6 -0.305,6.009 2.165,6.954 1.354,0.518 2.899,0.028 4.311,0.353 3.01,0.693 3.947,4.383 5.466,7.073 0.228,0.403 0.5,0.812 0.917,1.011 0.597,0.284 1.296,0.063 1.954,0 3.021,-0.291 5.233,2.739 8.042,3.889 3.476,1.424 7.948,-0.658 9.098,-4.234 0.472,-1.469 0.437,-3.062 0.883,-4.54 1.806,-5.985 10.7,-8.325 11.083,-14.566 0.259,-4.217 -3.769,-8.367 -2.063,-12.233 1.09,-2.472 4.348,-4.093 4.049,-6.779 -0.192,-1.727 -1.996,-2.947 -3.734,-2.967 -1.738,-0.02 -3.359,0.893 -4.697,2.003 -2.124,1.761 -3.749,4.049 -5.777,5.919 -2.028,1.871 -4.708,3.362 -7.436,2.95 -2.643,-0.399 -4.989,-2.524 -7.635,-2.15 -2.116,0.3 -3.728,2.14 -5.812,2.616 -1.95,0.447 -3.944,-0.365 -5.936,-0.537 -1.993,-0.171 -4.471,0.805 -4.575,2.802 -0.025,0.484 0.098,0.988 -0.066,1.444 -0.459,1.278 -2.658,1.147 -3.109,2.428 1.001,1.632 2.485,1.094 3.178,3.211 0.536,1.638 0.001,3.72 -0.306,5.353"
       style="fill:#292949;fill-opacity:1;fill-rule:nonzero;stroke:none;stroke-width:0.1"
       id="path210" /><path
       d="m 156.96,502.085 2.613,-11.844 c 0.849,-3.848 4.579,-6.295 8.332,-5.467 l 30.35,6.696 c 3.753,0.828 6.107,4.618 5.258,8.465 l -2.613,11.845 -43.94,-9.695"
       style="fill:#878787;fill-opacity:1;fill-rule:nonzero;stroke:none;stroke-width:0.1"
       id="path212" /><path
       d="m 217.436,682.207 c -9.193,41.67 -49.596,68.181 -90.24,59.214 -40.6448,-8.967 -66.1413,-50.017 -56.948,-91.687 3.2668,-14.808 10.4778,-27.699 20.2375,-37.766 h -0.0031 c 28.2396,-30.662 39.4736,-59.083 39.4736,-59.083 l 37.033,8.17 37.033,8.17 c 0,0 -1.768,30.51 10.949,70.208 l -0.003,-10e-4 c 4.617,13.24 5.735,27.968 2.468,42.775"
       style="fill:#ffffff;fill-opacity:1;fill-rule:nonzero;stroke:none;stroke-width:0.1"
       id="path214" /><path
       d="m 129.103,552.697 11.101,-50.317 c 0.464,-2.102 2.462,-3.448 4.464,-3.006 l 68.523,15.117 c 2.002,0.442 3.249,2.504 2.785,4.606 l -11.101,50.316 -75.772,-16.716"
       style="fill:#babcbe;fill-opacity:1;fill-rule:nonzero;stroke:none;stroke-width:0.1"
       id="path216" /><path
       d="m 213.012,696.045 c -10.426,-41.591 -33.96,-107.481 -83.136,-142.964 0.048,-0.117 0.08,-0.196 0.08,-0.196 l 37.033,8.17 37.033,8.17 c 0,0 -1.768,30.51 10.949,70.208 l -0.003,-10e-4 c 4.617,13.24 5.735,27.968 2.468,42.775 -1.066,4.831 -2.568,9.447 -4.424,13.838"
       style="fill:#eaeaea;fill-opacity:1;fill-rule:nonzero;stroke:none;stroke-width:0.1"
       id="path218" /><path
       d="m 83.6434,646.181 c -8.0262,36.38 14.2332,72.217 49.7176,80.046 20.741,4.576 41.407,-1.434 56.604,-14.48 -15.451,17.298 -39.179,26.004 -63.002,20.748 -35.4845,-7.829 -57.7439,-43.666 -49.7177,-80.045 3.3348,-15.115 11.3758,-27.942 22.1785,-37.215 -7.5625,8.466 -13.1429,18.992 -15.7804,30.946"
       style="fill:#dddae8;fill-opacity:1;fill-rule:nonzero;stroke:none;stroke-width:0.1"
       id="path220" /><path
       d="m 152.678,557.898 -30.223,94.612 14.759,-7.85 6.955,19.996 14.745,-14.619 9.981,12.815 12.405,-98.64 3.801,0.839 -13.536,107.63 -13.048,-16.753 -15.997,15.861 -7.485,-21.517 -19.196,10.21 33.038,-103.423 3.801,0.839"
       style="fill:#f6f7f7;fill-opacity:1;fill-rule:nonzero;stroke:none;stroke-width:0.1"
       id="path222" /><path
       d="m 145.863,566.494 3.014,-9.435 3.801,0.839 -3.723,11.654 c -1.017,-1.032 -2.046,-2.052 -3.092,-3.058"
       style="fill:#edeced;fill-opacity:1;fill-rule:nonzero;stroke:none;stroke-width:0.1"
       id="path224" /><path
       d="m 176.192,604.826 5.108,-40.614 3.801,0.839 -5.683,45.189 c -1.05,-1.815 -2.125,-3.62 -3.226,-5.414"
       style="fill:#dddae8;fill-opacity:1;fill-rule:nonzero;stroke:none;stroke-width:0.1"
       id="path226" /><path
       d="m 209.681,547.628 -75.771,-16.717 -2.051,9.292 75.772,16.717 2.05,-9.292"
       style="fill:#a2a2a3;fill-opacity:1;fill-rule:nonzero;stroke:none;stroke-width:0.1"
       id="path228" /><path
       d="m 214.059,527.784 -75.771,-16.716 -2.051,9.291 75.772,16.717 2.05,-9.292"
       style="fill:#a2a2a3;fill-opacity:1;fill-rule:nonzero;stroke:none;stroke-width:0.1"
       id="path230" /><path
       d="m 177.779,529.524 34.23,7.552 -2.328,10.552 -21.115,-4.659 c -3.534,-4.98 -7.155,-9.443 -10.787,-13.445"
       style="fill:#96928d;fill-opacity:1;fill-rule:nonzero;stroke:none;stroke-width:0.1"
       id="path232" /><path
       d="m 207.631,556.92 -2.756,12.493 -1.192,-0.262 c -2.481,-5.309 -5.085,-10.24 -7.78,-14.819 l 11.728,2.588"
       style="fill:#96928d;fill-opacity:1;fill-rule:nonzero;stroke:none;stroke-width:0.1"
       id="path234" /><path
       d="m 144.668,499.374 68.523,15.117 c 2.002,0.442 3.249,2.504 2.785,4.606 l -1.917,8.687 -49.476,-10.915 c -8.891,-7.38 -17.29,-12.248 -24.041,-15.411 0.765,-1.55 2.439,-2.457 4.126,-2.084"
       style="fill:#96928d;fill-opacity:1;fill-rule:nonzero;stroke:none;stroke-width:0.1"
       id="path236" /><path
       d="m 188.566,542.969 21.115,4.659 -2.05,9.292 -11.728,-2.588 c -2.386,-4.054 -4.839,-7.841 -7.337,-11.363"
       style="fill:#878787;fill-opacity:1;fill-rule:nonzero;stroke:none;stroke-width:0.1"
       id="path238" /><path
       d="m 164.583,516.869 49.476,10.915 -2.05,9.292 -34.23,-7.552 c -4.425,-4.875 -8.868,-9.063 -13.196,-12.655"
       style="fill:#878787;fill-opacity:1;fill-rule:nonzero;stroke:none;stroke-width:0.1"
       id="path240" /><path
       d="M 202.487,504.586 C 195.802,494.264 179.995,488.1 174.724,486.279 l 23.531,5.191 c 3.753,0.828 6.107,4.618 5.258,8.465 l -1.026,4.651"
       style="fill:#5d5a59;fill-opacity:1;fill-rule:nonzero;stroke:none;stroke-width:0.1"
       id="path242" /><path
       d="M 153.398,420.544 117.612,442.74 75.6,356.891 c -1.9449,-3.857 -0.6809,-8.52 2.9152,-10.75 l 41.5008,-25.74 c 3.596,-2.23 8.335,-1.291 10.926,2.165 l 58.243,75.782 -35.787,22.196"
       style="fill:#ffffff;fill-opacity:1;fill-rule:nonzero;stroke:none;stroke-width:0.1"
       id="path244" /><path
       d="m 74.9844,350.891 c 0.525,-1.921 1.7375,-3.638 3.5308,-4.75 l 41.5008,-25.74 c 3.596,-2.23 8.335,-1.292 10.926,2.165 l 58.233,75.77 -114.1906,-47.445"
       style="fill:#babcbe;fill-opacity:1;fill-rule:nonzero;stroke:none;stroke-width:0.1"
       id="path246" /><path
       d="m 117.612,442.74 68.516,-48.042 8.152,10.314 z"
       style="fill:#9f9b93;fill-opacity:1;fill-rule:nonzero;stroke:none;stroke-width:0.1"
       id="path248" /><path
       d="m 105.846,419.406 67.662,-41.966 -33.688,-43.033 -57.5567,35.699 23.5827,49.3"
       style="fill:#8cabef;fill-opacity:1;fill-rule:nonzero;stroke:none;stroke-width:0.1"
       id="path250" /><path
       d="m 114.896,444.179 76.437,-47.409 4.621,7.45 -76.437,47.409 -4.621,-7.45"
       style="fill:#292949;fill-opacity:1;fill-rule:nonzero;stroke:none;stroke-width:0.1"
       id="path252" /><path
       d="m 195.332,422.256 c -0.013,1.408 -0.733,2.7 -1.912,3.432 l -26.599,16.497 -26.598,16.498 c -1.18,0.731 -2.657,0.802 -3.925,0.187 l -12.091,-10.15 33.702,-20.903 33.702,-20.903 3.721,15.342"
       style="fill:#5d66d3;fill-opacity:1;fill-rule:nonzero;stroke:none;stroke-width:0.1"
       id="path254" /><path
       d="m 116.06,365.816 c 0.297,0.134 0.605,0.271 0.917,0.314 2.911,0.4 4.669,-1.135 7.569,-1.547 1.293,-0.183 3.495,2.354 4.642,-0.121 0.423,-0.914 1.145,-3.301 2.028,-5.257 1.289,-2.853 4.646,-5.69 7.728,-7.45 12.107,-6.918 25.761,-10.349 39.374,-13.319 0.776,-0.169 1.589,-0.334 2.356,-0.127 1.372,0.372 2.153,1.776 2.808,3.038 3.038,5.855 6.62,11.426 10.687,16.62 3.628,4.633 7.768,9.062 13.04,11.679 5.271,2.616 11.884,3.141 16.916,0.09 3.769,-2.285 6.309,-6.479 6.587,-10.877 0.688,-10.908 -13.61,-18.013 -21.065,-23.686 -7.052,-5.368 -14.48,-10.242 -22.214,-14.571 -0.955,-0.534 -1.947,-1.071 -3.035,-1.187 -1.16,-0.124 -2.31,0.242 -3.418,0.606 -14.265,4.693 -28.036,10.618 -41.758,16.852 -3.771,1.714 -6.162,5.192 -9.663,6.744 -2.234,0.992 -4.7,0.162 -7.015,0.63 -2.29,0.464 -5.179,1.657 -7.135,2.93 -3.858,2.514 -4.125,7.263 -4.767,11.389 -0.16,1.027 -0.27,1.72 0.047,2.641 0.517,1.498 1.798,2.349 3.038,3.239 0.735,0.527 1.515,0.998 2.333,1.37"
       style="fill:#d39689;fill-opacity:1;fill-rule:nonzero;stroke:none;stroke-width:0.1"
       id="path256" /><path
       d="m 259.976,386.645 c 0.142,0.425 0.303,0.847 0.439,1.272 6.139,19.239 -14.929,33.952 -31.356,23.408 -7.693,-4.938 -12.857,-12.88 -17.784,-20.58 -6.18,-9.666 -11.675,-19.766 -17.795,-29.468 -9.597,-15.217 -25.528,-13.936 -41.528,-10.212 -3.173,-7.637 -6.986,-15.007 -11.386,-22.01 11.476,-5.281 23.079,-10.604 35.457,-13.127 12.378,-2.523 25.788,-2.028 36.938,3.911 8.781,4.677 15.547,12.339 21.815,20.066 11.27,13.892 21.873,29.223 25.2,46.74"
       style="fill:#3b3387;fill-opacity:1;fill-rule:nonzero;stroke:none;stroke-width:0.1"
       id="path258" /></g></svg>