<?xml version="1.0" encoding="UTF-8" standalone="no"?>
<!-- Created with Inkscape (http://www.inkscape.org/) -->

<svg
   xmlns:dc="http://purl.org/dc/elements/1.1/"
   xmlns:cc="http://creativecommons.org/ns#"
   xmlns:rdf="http://www.w3.org/1999/02/22-rdf-syntax-ns#"
   xmlns:svg="http://www.w3.org/2000/svg"
   xmlns="http://www.w3.org/2000/svg"
   xmlns:sodipodi="http://sodipodi.sourceforge.net/DTD/sodipodi-0.dtd"
   xmlns:inkscape="http://www.inkscape.org/namespaces/inkscape"
   version="1.1"
   id="svg2"
   xml:space="preserve"
   width="1414.6433"
   height="850.258"
   viewBox="0 0 1414.6433 850.25796"
   sodipodi:docname="5.svg"
   inkscape:version="0.92.4 (unknown)"><metadata
     id="metadata8"><rdf:RDF><cc:Work
         rdf:about=""><dc:format>image/svg+xml</dc:format><dc:type
           rdf:resource="http://purl.org/dc/dcmitype/StillImage" /><dc:title></dc:title></cc:Work></rdf:RDF></metadata><defs
     id="defs6" /><sodipodi:namedview
     pagecolor="#ffffff"
     bordercolor="#666666"
     borderopacity="1"
     objecttolerance="10"
     gridtolerance="10"
     guidetolerance="10"
     inkscape:pageopacity="0"
     inkscape:pageshadow="2"
     inkscape:window-width="1366"
     inkscape:window-height="701"
     id="namedview4"
     showgrid="false"
     inkscape:zoom="0.22124998"
     inkscape:cx="699.88337"
     inkscape:cy="469.81613"
     inkscape:window-x="0"
     inkscape:window-y="24"
     inkscape:window-maximized="1"
     inkscape:current-layer="g10" /><g
     id="g10"
     inkscape:groupmode="layer"
     inkscape:label="ink_ext_XXXXXX"
     transform="matrix(1.3333333,0,0,-1.3333333,-33.449999,913.77517)"><path
       inkscape:connector-curvature="0"
       id="path16"
       style="fill:#f7f7f7;fill-opacity:1;fill-rule:nonzero;stroke:none;stroke-width:0.1"
       d="M 1036.46,165.417 H 173.905 c -27.283,0 -49.606,-8.938 -49.606,-19.863 v 0 c 0,-7.566 10.708,-14.175 26.35,-17.528 H 74.6934 c -27.2832,0 -49.6059,-8.938 -49.6059,-19.863 v 0 C 25.0875,97.2379 47.4102,88.3 74.6934,88.3 H 101.16 C 93.768,84.8281 89.2832,80.3391 89.2832,75.4469 V 67.502 c 0,-10.9258 22.3228,-19.8641 49.6058,-19.8641 h 849.718 c 27.283,0 49.603,8.9383 49.603,19.8641 v 7.9449 c 0,10.925 -22.32,19.864 -49.603,19.864 l -57.775,-0.4418 c 4.4,0 11.546,1.3899 16.34,4.1848 8.406,4.9001 8.779,12.3601 4.669,18.5341 -2.664,4.003 -6.933,7.177 -17.508,8.37 l 102.127,-0.269 c 27.29,0 49.61,8.939 49.61,19.865 v 0 c 0,10.925 -22.32,19.863 -49.61,19.863" /><path
       inkscape:connector-curvature="0"
       id="path18"
       style="fill:#c97f73;fill-opacity:1;fill-rule:nonzero;stroke:none;stroke-width:0.1"
       d="m 709.63,360.242 -19.326,-136.681 6.12,-102.98 -12.757,-4.581 -12.876,95.275 -26.05,166.846 64.889,-17.879" /><path
       inkscape:connector-curvature="0"
       id="path20"
       style="fill:#305399;fill-opacity:1;fill-rule:nonzero;stroke:none;stroke-width:0.1"
       d="m 682.99,117.191 -1.552,-10.228 3.425,-19.4579 11.432,1.0558 2.219,28.8031 -1.671,4.623 -13.853,-4.796" /><path
       inkscape:connector-curvature="0"
       id="path22"
       style="fill:#c97f73;fill-opacity:1;fill-rule:nonzero;stroke:none;stroke-width:0.1"
       d="m 597.647,364.571 5.838,-115.979 25.463,-162.1799 14.009,0.1551 -5.875,150.3288 18.495,138.529 -57.93,-10.854" /><path
       inkscape:connector-curvature="0"
       id="path24"
       style="fill:#305399;fill-opacity:1;fill-rule:nonzero;stroke:none;stroke-width:0.1"
       d="m 629.186,89.1852 -17.934,-13.0832 2.211,-9.8122 32.797,7.7364 -2.633,14.1718 -14.441,0.9872" /><path
       inkscape:connector-curvature="0"
       id="path26"
       style="fill:#7db5db;fill-opacity:1;fill-rule:nonzero;stroke:none;stroke-width:0.1"
       d="m 594.518,347.197 0.269,-134.608 16.258,-90.798 37.54,5.986 -0.846,104.895 8.06,115.205 -3.819,17.458 -54.291,-6.034 -3.171,-12.104" /><path
       inkscape:connector-curvature="0"
       id="path28"
       style="fill:#7db5db;fill-opacity:1;fill-rule:nonzero;stroke:none;stroke-width:0.1"
       d="m 660.829,230.66 11.393,-95.494 32.645,5.004 -7.269,90.898 12.38,116.181 -7.034,31.486 -54.854,-9.101 12.739,-138.974" /><path
       inkscape:connector-curvature="0"
       id="path30"
       style="fill:#c97f73;fill-opacity:1;fill-rule:nonzero;stroke:none;stroke-width:0.1"
       d="m 736.608,608.304 c -2.443,23.701 -32.539,38.309 -45.457,14.187 -3.883,-7.248 -6.983,-15.16 -7.176,-23.393 -0.193,-8.234 2.923,-16.851 9.474,-21.667 0.037,-0.027 0.076,-0.049 0.114,-0.076 -0.725,-1.991 -1.451,-3.982 -2.175,-5.974 -0.157,-0.427 -2.552,-5.246 -2.388,-5.669 0.186,-0.481 2.522,-1.863 3,-2.045 2.329,-0.889 4.837,-0.445 7.167,-1.334 1.154,-0.44 2.573,0.288 3.803,0.413 2.691,0.273 4.434,6.1 5.123,8.76 0.164,0.636 0.298,1.286 0.428,1.938 15.318,1.869 29.684,19.367 28.087,34.86" /><path
       inkscape:connector-curvature="0"
       id="path32"
       style="fill:#3b455a;fill-opacity:1;fill-rule:nonzero;stroke:none;stroke-width:0.1"
       d="m 690.417,615.418 c -4.483,-5.22 -5.376,-12.322 -5.482,-18.974 -0.104,-6.504 -1.777,-12.617 -1.283,-19.151 -0.83,-0.88 -2.239,0.008 -3.07,0.878 -4.87,5.105 -9.67,10.279 -14.399,15.519 -0.476,0.527 -0.963,1.076 -1.184,1.756 -0.28,0.862 -0.092,1.803 0.113,2.688 4.044,17.492 12.972,29.336 25.058,41.749 5.868,6.028 19.892,11.515 25.927,2.29 1.374,-2.101 1.581,-4.758 1.628,-7.286 0.028,-1.509 0.005,-3.062 -0.554,-4.464 -2.234,-5.587 -7.607,-4.42 -12.143,-5.612 -5.594,-1.471 -10.827,-4.987 -14.611,-9.393" /><path
       inkscape:connector-curvature="0"
       id="path34"
       style="fill:#3b455a;fill-opacity:1;fill-rule:nonzero;stroke:none;stroke-width:0.1"
       d="m 728.928,597.474 c -0.795,-5.098 -2.888,-10.701 -5.168,-15.283 -0.789,-1.587 -4.594,-4.97 -4.869,-6.085 -0.8,-3.229 4.734,-11.969 6.041,-15.104 11.442,4.203 22.883,8.405 34.326,12.607 0.876,0.323 1.796,0.675 2.39,1.406 0.539,0.663 0.729,1.541 0.891,2.384 3.189,16.573 1.236,32.222 -2.765,48.288 -3.998,16.059 -16.326,30.526 -33.26,32.094 -13.684,1.266 -24.722,-7.251 -21.946,-21.986 2.096,-11.124 14.862,-15.403 20.875,-23.718 3.777,-5.221 4.359,-9.91 3.485,-14.603" /><path
       inkscape:connector-curvature="0"
       id="path36"
       style="fill:#d7e8f4;fill-opacity:1;fill-rule:nonzero;stroke:none;stroke-width:0.1"
       d="m 711.816,559.005 c 0.261,-0.134 0.52,-0.271 0.777,-0.409 12.288,-6.607 19.682,-29.701 23.881,-43.252 10.836,-34.98 13.061,-70.187 9.669,-106.736 -1.827,-19.679 -4.538,-39.271 -7.651,-58.788 -0.86,-5.392 -11.837,-53.215 -9.491,-54.715 -24.052,15.383 -48.615,30.167 -74.956,40.677 -26.342,10.511 -54.844,1.329 -83.093,-1.08 16.106,60.408 36.273,136.71 61.225,193.791 2.984,6.827 5.335,14.218 9.28,20.535 4.543,7.276 10.183,8.835 17.521,12.497 2.515,1.255 5.047,2.517 7.732,3.265 14.149,3.939 32.132,0.933 45.106,-5.785" /><path
       inkscape:connector-curvature="0"
       id="path38"
       style="fill:#305399;fill-opacity:1;fill-rule:nonzero;stroke:none;stroke-width:0.1"
       d="m 695.369,530.607 c -4.299,1.914 -6.432,7.307 -3.858,11.817 4.658,8.164 8.72,16.202 3.76,25.327 -6.033,11.099 -20.965,15.208 -31.844,8.806 -13.415,-7.895 -11.762,-22.248 -4.524,-33.856 2.823,-4.524 0.719,-10.13 -3.68,-12.094 h -53.276 v -0.721 -18.943 -32.986 c -1.685,-4.825 -7.591,-7.279 -12.328,-4.328 -11.612,7.232 -25.967,8.877 -33.853,-4.543 -6.396,-10.882 -2.278,-25.813 8.824,-31.839 9.128,-4.955 17.164,-0.889 25.326,3.775 4.698,2.685 10.348,0.252 12.031,-4.414 v -52.035 h 49.846 c 0.097,0 0.187,-0.016 0.282,-0.019 h 3.148 c 4.399,1.964 6.503,7.57 3.68,12.094 -7.238,11.608 -8.891,25.961 4.524,33.856 10.879,6.402 25.811,2.293 31.844,-8.806 4.96,-9.124 0.898,-17.163 -3.76,-25.328 -2.574,-4.509 -0.441,-9.901 3.858,-11.816 h 3.13 c 0.097,0.004 0.189,0.019 0.287,0.019 h 49.194 v 51.178 c -1.198,5.79 -6.798,8.049 -12.253,5.088 -8.261,-4.485 -15.583,-8.478 -24.709,-3.523 -11.103,6.026 -15.836,20.705 -9.442,31.586 7.888,13.421 22.241,11.776 33.854,4.543 4.973,-3.097 11.239,-0.242 12.55,5.065 v 30.861 20.515 0.721 h -52.611" /><path
       inkscape:connector-curvature="0"
       id="path40"
       style="fill:#c97f73;fill-opacity:1;fill-rule:nonzero;stroke:none;stroke-width:0.1"
       d="m 261.043,670.685 c -17.344,22.929 -56.167,19.882 -64.332,-15.86 -5.3,-23.202 12.369,-49.366 35.722,-50.48 l -0.125,0.835 c 0.859,-0.152 1.732,-0.261 2.621,-0.307 14.72,-0.767 26.035,10.897 30.537,24.05 3.444,10.062 3.225,21.125 0.776,31.473 -0.707,2.988 -1.639,6.017 -3.571,8.402 -0.528,0.653 -1.132,1.231 -1.628,1.887" /><path
       inkscape:connector-curvature="0"
       id="path42"
       style="fill:#c97f73;fill-opacity:1;fill-rule:nonzero;stroke:none;stroke-width:0.1"
       d="m 220.477,591.758 c -0.051,-0.805 -0.081,-1.688 0.384,-2.33 0.414,-0.571 1.119,-0.807 1.785,-0.984 6.263,-1.667 13.107,-0.876 18.888,2.181 0.424,0.225 0.856,0.473 1.139,0.872 0.344,0.484 0.415,1.115 0.469,1.715 0.459,5.115 0.451,10.273 -0.022,15.383 -0.159,1.71 -0.427,3.544 -1.573,4.773 -3.275,3.509 -14.051,3.634 -17.649,0.146 -4.586,-4.447 -3.047,-15.837 -3.421,-21.756" /><path
       inkscape:connector-curvature="0"
       id="path44"
       style="fill:#3b455a;fill-opacity:1;fill-rule:nonzero;stroke:none;stroke-width:0.1"
       d="m 308.439,91.348 8.786,-8.716 c 5.659,-5.614 4.026,-15.439 -3.373,-18.4058 -4.361,-1.7481 -10.415,-1.275 -18.626,4.716 l -18.592,22.4808 3.342,6.9879 20.221,2.4321 8.242,-9.495" /><path
       inkscape:connector-curvature="0"
       id="path46"
       style="fill:#587bc9;fill-opacity:1;fill-rule:nonzero;stroke:none;stroke-width:0.1"
       d="m 326.55,338.636 5.964,-136.793 -27.486,-105.5539 -27.924,1.432 -10.088,90.7999 c 0,0 -70.548,122.68 -64.888,126.342 5.662,3.662 124.422,23.773 124.422,23.773" /><path
       inkscape:connector-curvature="0"
       id="path48"
       style="fill:#3b455a;fill-opacity:1;fill-rule:nonzero;stroke:none;stroke-width:0.1"
       d="m 166.142,91.2379 -8.417,-9.0731 c -5.422,-5.8449 -3.383,-15.5918 4.133,-18.25 4.43,-1.5656 10.459,-0.8418 18.415,5.4852 l 17.643,23.232 -3.629,6.845 -20.305,1.589 -7.84,-9.8281" /><path
       inkscape:connector-curvature="0"
       id="path50"
       style="fill:#587bc9;fill-opacity:1;fill-rule:nonzero;stroke:none;stroke-width:0.1"
       d="m 147.779,338.788 13.56,-121.23 6.825,-121.215 27.929,1.3011 31.806,89.6099 c 0,0 49.833,123.488 44.189,127.178 -5.643,3.688 -124.309,24.356 -124.309,24.356" /><path
       inkscape:connector-curvature="0"
       id="path52"
       style="fill:#d7e8f4;fill-opacity:1;fill-rule:nonzero;stroke:none;stroke-width:0.1"
       d="m 168.692,566.793 c -25.222,-25.802 -31.958,-65.892 -34.997,-103.232 -2.694,-33.089 -3.558,-66.35 -2.588,-99.548 0.345,-11.802 1.288,-24.609 8.596,-33.4 4.812,-5.79 11.718,-8.953 18.466,-11.693 50.398,-20.467 105.563,-27.13 158.92,-19.195 5.933,0.882 12.159,2.09 16.755,6.234 3.438,3.1 5.587,7.523 7.443,11.921 18.519,43.89 15.77,94.66 8.114,142.157 -5.514,34.211 -13.876,69.114 -33.711,96.463 -36.246,49.976 -104.955,53.303 -146.998,10.293" /><path
       inkscape:connector-curvature="0"
       id="path54"
       style="fill:#34435a;fill-opacity:1;fill-rule:nonzero;stroke:none;stroke-width:0.1"
       d="m 250.451,614.027 c 0.923,4.117 0.544,8.869 0.48,13.19 -0.005,0.3 -0.01,0.604 -0.099,0.89 -0.459,1.474 -2.815,1.359 -3.759,0.138 -0.945,-1.221 -0.922,-2.901 -0.975,-4.444 -0.133,-3.831 -1.357,-8.106 -4.761,-9.869 -1.926,-0.998 -4.197,-0.995 -6.366,-0.969 -3.39,0.04 -6.847,0.092 -10.054,1.19 -3.207,1.098 -6.18,3.44 -7.141,6.691 -0.881,2.982 0.015,6.298 -1.005,9.236 -0.286,0.822 -0.846,1.686 -1.711,1.786 -1.712,0.198 -0.899,-2.64 -1.058,-3.533 -0.618,-3.463 -1.049,-6.96 -1.293,-10.471 -1.107,-15.98 19.705,-17.453 30.564,-12.78 4.358,1.875 6.325,5.138 7.178,8.945" /><path
       inkscape:connector-curvature="0"
       id="path56"
       style="fill:#305399;fill-opacity:1;fill-rule:nonzero;stroke:none;stroke-width:0.1"
       d="m 202.848,579.63 c -12.723,-8.97 -9.896,-23.139 -1.729,-34.113 3.332,-4.477 1.375,-10.565 -3.294,-12.643 l -32.874,-2.728 -18.877,-1.566 -0.719,-0.059 4.405,-53.094 c -1.593,-4.547 -7.007,-7.106 -11.749,-4.668 -12.167,6.254 -26.607,6.716 -33.366,-7.307 -5.4805,-11.37 -0.151,-25.912 11.409,-31.008 9.503,-4.188 17.178,0.525 24.929,5.843 4.282,2.937 9.832,1.257 12.096,-2.869 l 4.349,-52.431 0.719,0.06 20.444,1.696 31.802,2.666 c 5.18,1.746 6.461,8.112 2.963,12.811 -8.167,10.975 -10.237,24.865 2.485,33.834 10.317,7.273 24.381,4.329 31.305,-6.237 5.692,-8.686 2.374,-17.036 -1.599,-25.555 -2.395,-5.137 0.13,-10.477 5.329,-11.406 l 52.086,4.205 -0.025,0.31 -0.332,-0.027 -4.404,53.093 c -2.321,4.222 -8.082,5.855 -12.357,2.669 -10.97,-8.174 -25.137,-11.008 -34.115,1.709 -7.278,10.311 -3.641,25.185 6.92,32.115 8.684,5.697 16.005,2.181 24.527,-1.787 4.706,-2.191 10.153,0.86 11.706,5.303 l -4.324,52.12 -51.526,-4.274 c -4.79,1.292 -7.68,6.721 -5.393,11.625 3.972,8.519 7.361,16.865 1.669,25.551 -6.924,10.566 -22.144,13.435 -32.46,6.162" /><path
       inkscape:connector-curvature="0"
       id="path58"
       style="fill:#c97f73;fill-opacity:1;fill-rule:nonzero;stroke:none;stroke-width:0.1"
       d="m 156.051,423.506 -6.051,-3.048 3.63,7.967 -2.783,3.131 -11.71,-8.428 0.781,-7.747 -0.105,-0.053 3.592,-19.844 15.207,-3.702 17.961,6.943 -6.915,26.059 -13.607,-1.278" /><path
       inkscape:connector-curvature="0"
       id="path60"
       style="fill:#ccdeea;fill-opacity:1;fill-rule:nonzero;stroke:none;stroke-width:0.1"
       d="m 146.003,434.735 c 0,0 -17.85,-2.19 -21.985,-17.917 -4.136,-15.727 8.312,-29.914 14.146,-31.469 5.833,-1.556 16.557,0.076 16.557,0.076 l -8.718,49.31" /><path
       inkscape:connector-curvature="0"
       id="path62"
       style="fill:#c97f73;fill-opacity:1;fill-rule:nonzero;stroke:none;stroke-width:0.1"
       d="m 306.917,434.979 6.051,-3.048 -3.63,7.967 2.783,3.131 11.71,-8.427 -0.781,-7.748 0.105,-0.053 -3.592,-19.843 -15.208,-3.703 -17.96,6.943 6.915,26.059 13.607,-1.278" /><path
       inkscape:connector-curvature="0"
       id="path64"
       style="fill:#ccdeea;fill-opacity:1;fill-rule:nonzero;stroke:none;stroke-width:0.1"
       d="m 316.965,446.208 c 0,0 17.85,-2.189 21.985,-17.916 4.136,-15.728 -8.312,-29.915 -14.146,-31.471 -5.833,-1.555 -16.557,0.077 -16.557,0.077 l 8.718,49.31" /><path
       inkscape:connector-curvature="0"
       id="path66"
       style="fill:#c97f73;fill-opacity:1;fill-rule:nonzero;stroke:none;stroke-width:0.1"
       d="m 715.462,361.411 c -5.028,-4.093 -10.055,-8.187 -15.05,-12.322 -1.802,2.164 -3.603,4.328 -5.406,6.492 2.802,3.614 5.6,7.23 8.401,10.845 -1.284,0.605 -2.574,1.2 -3.858,1.807 4.81,2.941 9.677,5.761 14.532,8.622 2.167,-1.938 4.295,-3.933 6.526,-5.798 -1.727,-3.202 -3.566,-6.368 -5.145,-9.646" /><path
       inkscape:connector-curvature="0"
       id="path68"
       style="fill:#d1e3ed;fill-opacity:1;fill-rule:nonzero;stroke:none;stroke-width:0.1"
       d="m 717.278,538.668 c -1.143,-1.206 -1.893,-2.858 -2.442,-4.571 -2.276,-7.102 -1.736,-14.691 0.954,-21.493 4.259,-10.771 11.483,-19.478 16.148,-29.75 5.337,-11.75 9.121,-23.667 12.995,-35.894 -10.512,-24.292 -22.432,-46.915 -37.645,-68.614 4.536,-3.667 9.021,-7.396 13.587,-11.024 24.445,24.346 43.531,51.182 62.765,79.663 -6.132,17.205 -12.149,33.991 -19.543,50.834 -6.628,15.099 -12.299,31.289 -25.304,42.087 -7.344,6.097 -15.232,5.393 -21.515,-1.238" /><path
       inkscape:connector-curvature="0"
       id="path70"
       style="fill:#c97f73;fill-opacity:1;fill-rule:nonzero;stroke:none;stroke-width:0.1"
       d="m 607.423,433.125 -4.532,-2.14 2.921,4.747 -1.935,1.572 -8.853,-5.568 0.317,-4.316 -0.079,-0.037 1.977,-10.944 11.015,-1.032 8.727,7.419 -1.839,8.215 -7.719,2.084" /><path
       inkscape:connector-curvature="0"
       id="path72"
       style="fill:#d7e8f4;fill-opacity:1;fill-rule:nonzero;stroke:none;stroke-width:0.1"
       d="m 601.004,436.836 c 0,0 -13.088,-2.669 -16.961,-10.722 -3.873,-8.054 4.385,-13.871 8.536,-14.109 4.151,-0.237 12.031,1.52 12.031,1.52 l -3.606,23.311" /><path
       inkscape:connector-curvature="0"
       id="path74"
       style="fill:#15529b;fill-opacity:1;fill-rule:nonzero;stroke:none;stroke-width:0.1"
       d="m 442.534,370.571 -13.642,-35.361 29.606,-228.269 19.557,5.709 12.796,263.104 -48.317,-5.183" /><path
       inkscape:connector-curvature="0"
       id="path76"
       style="fill:#15529b;fill-opacity:1;fill-rule:nonzero;stroke:none;stroke-width:0.1"
       d="m 528.713,391.499 9.445,-161.489 -22.264,-124.295 -23.141,6.622 9.883,118.432 -29.716,157.712 55.793,3.018" /><path
       inkscape:connector-curvature="0"
       id="path78"
       style="fill:#3b455a;fill-opacity:1;fill-rule:nonzero;stroke:none;stroke-width:0.1"
       d="m 491.724,124.613 27.884,-10.256 -7.581,-19.5308 14.812,-7.8032 c 0,0 1.939,-7.7371 -2.549,-11.414 -4.486,-3.677 -37.21,19.75 -37.21,19.75 l 4.644,29.254" /><path
       inkscape:connector-curvature="0"
       id="path80"
       style="fill:#3b455a;fill-opacity:1;fill-rule:nonzero;stroke:none;stroke-width:0.1"
       d="m 451.733,117.035 29.591,-2.67 -2.253,-20.8279 16.329,-3.6922 c 0,0 3.88,-6.9687 0.501,-11.6847 -3.38,-4.7153 -41.061,9.4179 -41.061,9.4179 l -3.107,29.4569" /><path
       inkscape:connector-curvature="0"
       id="path82"
       style="fill:#34435a;fill-opacity:1;fill-rule:nonzero;stroke:none;stroke-width:0.1"
       d="m 407.684,609.711 c 5.579,-4.384 11.745,-8.022 18.281,-10.784 -7.02,10.285 -12.618,21.54 -16.585,33.343 -0.303,0.9 -0.677,1.899 -1.538,2.301 -0.804,0.375 -1.749,0.091 -2.576,-0.229 -14.779,-5.716 -7.309,-16.988 2.418,-24.631" /><path
       inkscape:connector-curvature="0"
       id="path84"
       style="fill:#f9cbb7;fill-opacity:1;fill-rule:nonzero;stroke:none;stroke-width:0.1"
       d="m 425.749,598.485 c 4.238,-3.296 9.729,-6.541 15.875,-6.082 7.238,0.541 11.667,5.896 13.896,10.878 7.36,16.455 0.024,73.979 -40.22,61.461 -36.541,-11.367 -7.139,-52.579 10.449,-66.257" /><path
       inkscape:connector-curvature="0"
       id="path86"
       style="fill:#34435a;fill-opacity:1;fill-rule:nonzero;stroke:none;stroke-width:0.1"
       d="m 451.986,616.399 c 3.997,-1.554 8.028,2.223 10.17,5.938 8.801,15.262 6.072,36.267 -6.335,48.774 -10.383,10.465 -31.553,9.507 -24.791,-7.472 2.397,-6.021 10.46,-11.243 13.591,-17.613 4.474,-9.102 5.845,-19.719 7.365,-29.627" /><path
       inkscape:connector-curvature="0"
       id="path88"
       style="fill:#34435a;fill-opacity:1;fill-rule:nonzero;stroke:none;stroke-width:0.1"
       d="m 374.624,659.097 c -9.279,-18.752 -3.305,-41.742 -9.92,-61.591 16.295,2.9 31.241,12.72 40.372,26.525 8.956,13.539 36.252,36.9 20.514,51.404 -16.019,14.763 -42.836,0.093 -50.966,-16.338" /><path
       inkscape:connector-curvature="0"
       id="path90"
       style="fill:#f9cbb7;fill-opacity:1;fill-rule:nonzero;stroke:none;stroke-width:0.1"
       d="m 457.915,590.112 c -2.416,5.3 -4.833,10.599 -7.251,15.898 -0.254,0.559 -0.538,1.15 -1.063,1.467 -1.018,0.613 -2.293,-0.098 -3.26,-0.788 -3.498,-2.497 -6.996,-4.995 -10.494,-7.492 2.208,-6.588 3.785,-13.386 4.686,-20.275 5.272,2.444 10.544,4.887 15.816,7.331 0.827,0.383 1.743,0.867 1.986,1.746 0.196,0.707 -0.115,1.445 -0.42,2.113" /><path
       inkscape:connector-curvature="0"
       id="path92"
       style="fill:#f9cbb7;fill-opacity:1;fill-rule:nonzero;stroke:none;stroke-width:0.1"
       d="m 432.652,596.916 c 1.065,0.76 2.13,1.521 3.195,2.281 -0.132,0.395 -0.259,0.792 -0.395,1.185 l -2.8,-3.466" /><path
       inkscape:connector-curvature="0"
       id="path94"
       style="fill:#7db5db;fill-opacity:1;fill-rule:nonzero;stroke:none;stroke-width:0.1"
       d="m 402.445,558.644 c -9.045,-18.954 -7.406,-39.496 -4.441,-59.039 6.715,-44.24 6.473,-96.156 25.108,-137.501 28.955,2.269 83.438,19.848 112.049,25.047 2.624,39.118 -2.403,61.479 -8.966,105.036 -3.236,21.476 -8.833,50.191 -18.071,70.173 -7.563,16.359 -25.932,36.818 -51.063,34.175 -23.55,-2.477 -46.391,-20.655 -54.616,-37.891" /><path
       inkscape:connector-curvature="0"
       id="path96"
       style="fill:#6699c4;fill-opacity:1;fill-rule:nonzero;stroke:none;stroke-width:0.1"
       d="m 428.853,392.871 -12.692,-0.031 13.109,0.003 c -0.14,0.007 -0.274,0.028 -0.417,0.028" /><path
       inkscape:connector-curvature="0"
       id="path98"
       style="fill:#587bc9;fill-opacity:1;fill-rule:nonzero;stroke:none;stroke-width:0.1"
       d="m 440.024,584.882 c -13.397,-7.927 -11.709,-22.276 -4.442,-33.866 2.832,-4.518 0.743,-10.129 -3.652,-12.104 l -53.276,-0.128 0.002,-0.722 0.046,-18.942 0.079,-32.986 c -1.674,-4.829 -7.573,-7.297 -12.317,-4.358 -11.63,7.204 -25.988,8.815 -33.842,-4.625 -6.37,-10.897 -2.216,-25.818 8.901,-31.818 9.139,-4.933 17.166,-0.846 25.316,3.837 4.692,2.696 10.347,0.278 12.042,-4.384 l 0.125,-52.035 h 0.018 v 0.081 h 0.722 l 18.942,0.004 17.473,0.004 12.692,0.031 c 0.143,0 0.277,-0.021 0.417,-0.028 l 2.405,10e-4 c 4.824,1.686 7.276,7.592 4.324,12.328 -7.234,11.611 -8.883,25.965 4.536,33.855 10.881,6.398 25.812,2.283 31.841,-8.818 4.957,-9.126 0.892,-17.164 -3.77,-25.326 -2.683,-4.699 -0.25,-10.348 4.417,-12.03 l 1.414,10e-4 c 0.457,0.076 0.923,0.128 1.409,0.13 l 49.193,0.119 -0.123,51.177 c -1.246,6.078 -7.105,9.264 -12.019,6.44 -8.15,-4.683 -15.148,-8.155 -26.367,-3.121 -9.63,4.321 -14.467,18.823 -8.097,29.721 7.854,13.439 22.212,11.828 33.842,4.624 4.98,-3.085 11.239,-0.215 12.538,5.095 l -0.074,30.861 -0.05,20.515 -0.002,0.721 -52.611,-0.127 c -4.304,1.904 -6.449,7.292 -3.887,11.807 4.64,8.176 8.682,16.225 3.7,25.337 -6.06,11.084 -21.002,15.157 -31.865,8.729" /><path
       inkscape:connector-curvature="0"
       id="path100"
       style="fill:#f9cbb7;fill-opacity:1;fill-rule:nonzero;stroke:none;stroke-width:0.1"
       d="m 382.267,522.801 -2.162,-3.981 -1.043,5.76 -2.722,0.658 -3.219,-9.092 3.382,-3.958 -0.038,-0.069 9.537,-9.53 9.764,3.763 1.777,10.794 -7.449,7 -7.827,-1.345" /><path
       inkscape:connector-curvature="0"
       id="path102"
       style="fill:#7db5db;fill-opacity:1;fill-rule:nonzero;stroke:none;stroke-width:0.1"
       d="m 374.326,523.557 c 0,0 -8.784,-8.164 -6.127,-17.472 2.656,-9.307 13.625,-11.269 17.196,-9.707 3.57,1.561 8.75,6.621 8.75,6.621 l -19.819,20.558" /><path
       inkscape:connector-curvature="0"
       id="path104"
       style="fill:#f9cbb7;fill-opacity:1;fill-rule:nonzero;stroke:none;stroke-width:0.1"
       d="m 529.865,452.064 -5.886,-13.614 -6.011,2.121 1.936,10.166 -3.339,-0.296 6.475,11.071 6.567,-1.374 0.258,-8.074" /><path
       inkscape:connector-curvature="0"
       id="path106"
       style="fill:#7db5db;fill-opacity:1;fill-rule:nonzero;stroke:none;stroke-width:0.1"
       d="m 487.059,583.963 c -0.571,-1.04 -1.012,-2.229 -1.296,-3.566 -1.18,-5.546 0.412,-11.341 3.22,-16.232 4.447,-7.744 11.48,-14.129 16.814,-21.315 6.102,-8.22 12.204,-16.439 18.306,-24.658 l -4.527,-59.728 13.182,-2.072 19.694,71.404 c -8.659,10.517 -17.162,20.762 -25.064,31.742 -7.083,9.843 -12.583,21.9 -23.816,27.946 -6.343,3.414 -13.379,2.195 -16.513,-3.521" /><path
       inkscape:connector-curvature="0"
       id="path108"
       style="fill:#305399;fill-opacity:1;fill-rule:nonzero;stroke:none;stroke-width:0.1"
       d="m 897.237,270.183 1.012,-15.826 3.018,-38.197 5.594,-139.7928 0.101,-0.0031 0.079,2.0211 17.693,-0.5903 33.088,154.9751 15.431,118.728 c -24.009,-9.708 -65.897,-17.402 -84.89,-18.703 l 8.874,-62.612" /><path
       inkscape:connector-curvature="0"
       id="path110"
       style="fill:#3b455a;fill-opacity:1;fill-rule:nonzero;stroke:none;stroke-width:0.1"
       d="m 925.954,77.7551 -1.22,0.0398 -17.693,0.5903 -0.079,-2.0211 -0.279,-7.161 18.553,-9.8109 9.816,8.866 -9.098,9.4969" /><path
       inkscape:connector-curvature="0"
       id="path112"
       style="fill:#305399;fill-opacity:1;fill-rule:nonzero;stroke:none;stroke-width:0.1"
       d="m 900.09,282.944 -11.641,-48.15 -6.252,-139.7651 -0.1,-0.0027 -0.07,2.0218 -17.695,-0.507 -27.573,148.466 -5.569,87.922 c 19.176,-3.158 53.409,1.22 72.395,-0.17 l -3.495,-49.815" /><path
       inkscape:connector-curvature="0"
       id="path114"
       style="fill:#3b455a;fill-opacity:1;fill-rule:nonzero;stroke:none;stroke-width:0.1"
       d="m 863.111,96.5059 1.221,0.0351 17.695,0.507 0.07,-2.0218 0.246,-7.1621 -18.6,-9.7239 -9.773,8.9129 9.141,9.4528" /><path
       inkscape:connector-curvature="0"
       id="path116"
       style="fill:#3b455a;fill-opacity:1;fill-rule:nonzero;stroke:none;stroke-width:0.1"
       d="m 914.671,642.223 c 3.222,-5.003 4.988,-10.882 5.611,-16.821 0.166,-1.578 0.385,-3.401 1.7,-4.26 1.41,-0.92 0.36,-3.186 1.303,-1.786 0.942,1.399 4.139,6.256 4.192,7.954 0.124,3.979 -0.127,7.971 -0.749,11.904 -0.539,3.421 -1.451,6.975 -3.826,9.466 -1.408,1.477 -3.227,2.465 -5.017,3.423 -2.596,1.388 -5.27,2.784 -8.177,3.157 -5.012,0.643 -7.939,-1.345 -3.353,-4.596 3.287,-2.33 6.108,-5.014 8.316,-8.441" /><path
       inkscape:connector-curvature="0"
       id="path118"
       style="fill:#f9cbb7;fill-opacity:1;fill-rule:nonzero;stroke:none;stroke-width:0.1"
       d="m 888.037,572.818 c 6.855,-0.241 13.708,-0.483 20.563,-0.724 0.668,6.047 0.904,12.163 0.702,18.27 5.871,1.389 12.731,3.757 14.373,10.198 0.516,2.03 0.406,4.197 0.292,6.316 -0.475,8.761 -0.949,17.522 -1.423,26.284 -0.164,3.029 -0.349,6.151 -1.542,8.901 -2.092,4.826 -6.82,7.494 -11.395,9.078 -11.672,4.042 -24.926,3.063 -35.019,-4.278 -2.687,-1.954 -5.185,-4.409 -6.604,-7.625 -2.187,-4.959 -1.51,-10.88 -0.784,-16.408 0.67,-5.102 1.34,-10.205 2.011,-15.308 0.77,-5.869 2.057,-12.6 6.749,-15.444 2.491,-1.51 5.599,-1.629 7.789,-3.645 3.864,-3.555 2.617,-10.364 4.288,-15.615" /><path
       inkscape:connector-curvature="0"
       id="path120"
       style="fill:#3b455a;fill-opacity:1;fill-rule:nonzero;stroke:none;stroke-width:0.1"
       d="m 905.115,596.882 c -2.963,-2.299 -6.363,-2.616 -9.875,-1.766 -1.492,0.361 -1.023,2.898 0.471,2.536 2.91,-0.704 5.604,-0.52 8.071,1.393 1.24,0.963 2.567,-1.207 1.333,-2.163 z m 20.726,13.612 c -0.197,1.618 -1.186,6.335 -3.405,3.201 -0.58,-0.82 -0.667,-1.934 -0.641,-2.978 0.025,-1.043 0.138,-2.112 -0.125,-3.112 -0.603,-2.294 -2.989,-3.464 -5.174,-3.555 -0.869,-0.036 -1.762,0.056 -2.557,0.455 -0.771,0.387 -1.404,1.037 -2.022,1.675 -1.501,1.55 -3.001,3.101 -4.502,4.651 -2.579,2.665 -7.279,1.166 -10.497,0.543 -3.707,-0.72 -7.377,-2.09 -10.277,-4.772 -0.293,-0.271 -0.578,-0.554 -0.864,-0.837 -0.696,-0.689 -1.397,-1.373 -2.227,-1.848 -2.799,-1.601 -6.466,-0.323 -8.654,2.23 -1.003,1.17 -1.963,2.695 -3.417,2.814 -1.136,0.094 -2.183,-0.793 -2.695,-1.899 -0.513,-1.107 -0.59,-2.395 -0.592,-3.642 -0.007,-4.541 0.893,-9.169 3.067,-13.066 4.716,-8.451 12.866,-9.037 20.978,-8.357 3.207,0.268 6.414,0.537 9.621,0.806 5.864,0.49 12.055,1.108 16.788,4.873 4.175,3.322 6.45,8.682 7.178,14.197 0.376,2.847 0.363,5.761 0.017,8.621" /><path
       inkscape:connector-curvature="0"
       id="path122"
       style="fill:#3b455a;fill-opacity:1;fill-rule:nonzero;stroke:none;stroke-width:0.1"
       d="m 924.155,658.021 c 0.438,2.156 0.724,4.344 0.857,6.542 -1.944,-0.827 -4.096,-1.145 -6.195,-0.914 -0.082,1.259 -0.164,2.518 -0.247,3.777 -0.073,1.047 -14.052,0.949 -15.191,0.976 -10.654,0.253 -20.4,0.515 -29.63,-5.84 -7.885,-5.43 -12.682,-13.121 -13.349,-22.8 -0.636,-9.247 3.052,-21.054 8.738,-28.359 -0.18,2.441 -1.916,8.121 -1.492,10.476 0.205,2.348 0.857,4.638 1.821,6.774 1.924,4.264 5.084,7.946 8.828,10.661 5.971,4.33 13.065,6.854 20.218,8.306 6.552,1.33 14.554,2.674 21.194,1.283 3.191,-0.669 3.761,-1.438 5.465,1.897 0.3,0.588 2.551,7.378 2.29,7.367 -1.102,-0.049 -2.204,-0.098 -3.307,-0.146" /><path
       inkscape:connector-curvature="0"
       id="path124"
       style="fill:#7db5db;fill-opacity:1;fill-rule:nonzero;stroke:none;stroke-width:0.1"
       d="m 869.306,577.014 53.287,-2.777 32.702,-13.506 27.785,-240.098 c 0,0 -141.312,-4.473 -165.8,1.711 l 30.058,236.857 21.968,17.813" /><path
       inkscape:connector-curvature="0"
       id="path126"
       style="fill:#3b455a;fill-opacity:1;fill-rule:nonzero;stroke:none;stroke-width:0.1"
       d="m 912.396,526.136 c -4.298,1.914 -6.431,7.307 -3.858,11.817 4.659,8.164 8.721,16.202 3.761,25.327 -6.033,11.098 -20.966,15.208 -31.844,8.806 -13.416,-7.895 -11.763,-22.248 -4.523,-33.856 2.821,-4.524 0.717,-10.13 -3.682,-12.094 h -53.275 v -0.721 -18.943 -32.987 c -1.686,-4.824 -7.591,-7.278 -12.329,-4.327 -11.612,7.232 -25.965,8.877 -33.853,-4.544 -6.396,-10.882 -2.277,-25.812 8.824,-31.839 9.128,-4.955 17.164,-0.888 25.326,3.776 4.699,2.684 10.348,0.252 12.032,-4.414 v -52.034 h 49.845 c 6.578,0 10.592,-7.234 7.112,-12.816 -7.24,-11.608 -8.893,-25.961 4.523,-33.856 10.878,-6.402 25.811,-2.292 31.844,8.805 4.96,9.125 0.898,17.164 -3.761,25.328 -3.188,5.587 0.843,12.539 7.275,12.539 h 49.195 v 51.177 c -1.356,5.104 -7.332,7.9 -12.254,5.088 -8.161,-4.664 -16.198,-8.731 -25.325,-3.776 -11.103,6.027 -15.22,20.957 -8.826,31.839 7.888,13.421 22.242,11.776 33.854,4.543 4.974,-3.098 11.239,-0.242 12.551,5.065 v 30.861 20.515 0.721 h -52.612" /><path
       inkscape:connector-curvature="0"
       id="path128"
       style="fill:#f9cbb7;fill-opacity:1;fill-rule:nonzero;stroke:none;stroke-width:0.1"
       d="m 965.117,395.855 -7.378,-9.479 -8.28,0.796 1.963,9.394 -4.181,-0.797 -1.306,2.393 11.533,11.682 7.775,-3.385 -0.126,-10.604" /><path
       inkscape:connector-curvature="0"
       id="path130"
       style="fill:#7db5db;fill-opacity:1;fill-rule:nonzero;stroke:none;stroke-width:0.1"
       d="m 941.969,556.64 c -0.824,-1.06 -1.534,-2.316 -2.102,-3.774 -2.355,-6.048 -1.733,-12.965 0.391,-19.114 3.363,-9.734 9.811,-18.477 14.251,-27.767 5.079,-10.626 10.157,-21.252 15.236,-31.879 l -16.438,-66.856 13.99,-5.148 35.243,76.899 c -7.429,13.777 -14.738,27.212 -21.251,41.355 -5.838,12.678 -9.52,27.534 -20.617,36.781 -6.268,5.22 -14.182,5.328 -18.703,-0.497" /><path
       inkscape:connector-curvature="0"
       id="path132"
       style="fill:#f9cbb7;fill-opacity:1;fill-rule:nonzero;stroke:none;stroke-width:0.1"
       d="m 820.707,490.745 -4.046,-2.037 2.427,5.326 -1.861,2.093 -7.829,-5.634 0.523,-5.18 -0.071,-0.036 2.402,-13.266 10.167,-2.475 7.614,7.854 -2.129,9.999 -7.197,3.356" /><path
       inkscape:connector-curvature="0"
       id="path134"
       style="fill:#7db5db;fill-opacity:1;fill-rule:nonzero;stroke:none;stroke-width:0.1"
       d="m 814.614,495.894 c 0,0 -11.871,-1.7 -14.995,-10.86 -3.124,-9.16 4.769,-17.027 8.592,-17.78 3.824,-0.753 10.964,0.451 10.964,0.451 l -4.561,28.189" /></g></svg>